<?xml version="1.0" encoding="utf-8"?>
<!-- Generator: Adobe Illustrator 19.1.1, SVG Export Plug-In . SVG Version: 6.00 Build 0)  -->
<svg version="1.1" id="Layer_1" xmlns="http://www.w3.org/2000/svg" xmlns:xlink="http://www.w3.org/1999/xlink" x="0px" y="0px"
	 viewBox="0 0 1200 1200" enable-background="new 0 0 1200 1200" xml:space="preserve">
<g>
	<g>
		<path fill="#028DFF" d="M769.914,1150c-3.817,0-7.652-0.878-11.19-2.663c-8.386-4.228-13.67-12.813-13.67-22.202V945.171H152.415
			c-13.735,0-24.865-11.132-24.865-24.865V205.591C127.55,119.799,196.861,50,282.052,50h765.533
			c13.735,0,24.865,11.132,24.865,24.865v780.086c0,48.481-23.286,94.645-62.295,123.49l0,0l-225.453,166.689
			C780.338,1148.354,775.142,1150,769.914,1150z M177.28,895.441h592.639c13.735,0,24.865,11.132,24.865,24.865v155.522
			l185.803-137.375c26.383-19.507,42.134-50.721,42.134-83.501V99.73H282.052c-56.793,0-104.772,48.479-104.772,105.861V895.441z"/>
		<g>
			<path fill="#0B1153" d="M579.278,553.554v-1.513v-0.757c0-5.302,4.731-9.085,10.03-9.085
				c77.229,0,141.302-64.357,141.302-141.588c0-78.742-63.365-142.343-140.593-142.343c-53,0-98.31,28.015-123.298,71.173
				c-3.026,3.786-8.269,5.299-12.055,3.029c-4.542-3.029-6.026-8.328-2.997-12.114c27.255-48.457,78.757-80.258,138.571-80.258
				c87.073,0,160.097,71.929,160.097,160.513c0,84.803-67.449,155.216-150.336,159.759v92.372c0,4.543-5.818,9.085-10.361,9.085
				c-5.299,0-10.361-4.542-10.361-9.085V553.554z M579.278,743.597c0-4.543,5.061-9.085,10.361-9.085
				c4.543,0,10.361,4.542,10.361,9.085v17.416c0,5.299-5.818,9.085-10.361,9.085c-5.299,0-10.361-3.786-10.361-9.085V743.597z"/>
			<path fill="#0B1153" d="M589.641,790.819c-17.139,0-31.087-13.37-31.087-29.806v-17.417c0-16.156,14.237-29.806,31.087-29.806
				c14.673,0,31.083,12.746,31.083,29.806v17.417C620.723,778.844,604.653,790.819,589.641,790.819z M582.388,752.463
				c1.537,1.604,3.835,2.77,7.253,2.77c3.023,0,5.344-1.087,7.021-2.77c-1.848-1.915-4.314-3.086-7.021-3.086
				C586.395,749.377,584.032,750.645,582.388,752.463z M589.641,682.546c-16.851,0-31.087-13.649-31.087-29.806V551.283
				c0-16.435,13.795-29.806,30.753-29.806c65.36,0,120.578-55.351,120.578-120.868c0-67.061-53.77-121.621-119.868-121.621
				c-43.921,0-83.311,22.743-105.367,60.835c-0.515,0.892-1.1,1.746-1.741,2.549c-9.607,12.024-26.323,15.397-38.897,7.87
				c-0.283-0.172-0.566-0.348-0.84-0.534c-7.29-4.859-12.203-12.365-13.48-20.593c-1.1-7.104,0.501-14.123,4.518-19.985
				c32.113-56.224,90.35-89.756,156.03-89.756c99.702,0,180.821,81.3,180.821,181.234c0,89.282-64.607,164.107-150.337,178.3v73.831
				C620.723,669.8,604.314,682.546,589.641,682.546z"/>
		</g>
	</g>
</g>
</svg>
