<?xml version="1.0" encoding="utf-8"?>
<!-- Generator: Adobe Illustrator 19.1.1, SVG Export Plug-In . SVG Version: 6.00 Build 0)  -->
<svg version="1.1" id="Layer_1" xmlns="http://www.w3.org/2000/svg" xmlns:xlink="http://www.w3.org/1999/xlink" x="0px" y="0px"
	 viewBox="0 0 1200 1200" enable-background="new 0 0 1200 1200" xml:space="preserve">
<g>
	<g>
		<path fill="#0B1153" d="M231.545,1150c-83.928,0-152.206-68.776-152.206-153.315V76.93c0-14.873,12.054-26.93,26.93-26.93h755.216
			c83.511,0,151.452,68.854,151.452,153.488v717.273c0,14.873-12.054,26.93-26.93,26.93s-26.93-12.057-26.93-26.93V203.488
			c0-55.866-42.867-99.628-97.592-99.628H133.199v892.825c0,54.838,44.119,99.455,98.346,99.455c14.876,0,26.93,12.057,26.93,26.93
			C258.475,1137.943,246.42,1150,231.545,1150z"/>
		<path fill="#0B1153" d="M961.002,1149.673H222.281c-14.876,0-26.93-12.057-26.93-26.93s12.054-26.93,26.93-26.93
			c54.826,0,99.432-44.469,99.432-99.128v-75.924c0-14.873,12.054-26.93,26.93-26.93h745.088c14.876,0,26.93,12.057,26.93,26.93
			v71.129C1120.661,1078.893,1049.039,1149.673,961.002,1149.673z M338.958,1095.813h622.045
			c58.336,0,105.799-46.621,105.799-103.923v-44.199H375.574v48.994C375.574,1034.468,361.779,1069.092,338.958,1095.813z"/>
	</g>
	<path fill="#028DFF" d="M837.889,364.191H254.386c-14.876,0-26.93-12.057-26.93-26.93c0-14.873,12.054-26.93,26.93-26.93h583.503
		c14.876,0,26.93,12.057,26.93,26.93C864.819,352.134,852.765,364.191,837.889,364.191z"/>
	<path fill="#028DFF" d="M837.889,512.31H254.386c-14.876,0-26.93-12.057-26.93-26.93c0-14.873,12.054-26.93,26.93-26.93h583.503
		c14.876,0,26.93,12.057,26.93,26.93C864.819,500.254,852.765,512.31,837.889,512.31z"/>
	<path fill="#028DFF" d="M837.889,655.942H254.386c-14.876,0-26.93-12.057-26.93-26.93c0-14.873,12.054-26.93,26.93-26.93h583.503
		c14.876,0,26.93,12.057,26.93,26.93C864.819,643.885,852.765,655.942,837.889,655.942z"/>
	<path fill="#028DFF" d="M837.889,799.573H254.386c-14.876,0-26.93-12.057-26.93-26.93s12.054-26.93,26.93-26.93h583.503
		c14.876,0,26.93,12.057,26.93,26.93S852.765,799.573,837.889,799.573z"/>
</g>
</svg>
