<?xml version="1.0" encoding="utf-8"?>
<!-- Generator: Adobe Illustrator 19.1.1, SVG Export Plug-In . SVG Version: 6.00 Build 0)  -->
<svg version="1.1" id="Layer_1" xmlns="http://www.w3.org/2000/svg" xmlns:xlink="http://www.w3.org/1999/xlink" x="0px" y="0px"
	 viewBox="0 0 1200 1200" enable-background="new 0 0 1200 1200" xml:space="preserve">
<g>
	<g>
		<g>
			<g>
				<path fill="#028DFF" d="M431.09,1138.382c-12.936,0-23.684-10.211-24.228-23.258L373.463,312.35
					c-0.553-13.389,9.846-24.694,23.235-25.252c13.507-0.512,24.699,9.846,25.256,23.235l33.399,802.774
					c0.553,13.389-9.846,24.694-23.235,25.252C431.774,1138.373,431.43,1138.382,431.09,1138.382z"/>
				
					<path fill="none" stroke="#028DFF" stroke-width="10.4593" stroke-linecap="round" stroke-linejoin="round" stroke-miterlimit="10" d="
					M823.292,1125.411"/>
				
					<path fill="none" stroke="#028DFF" stroke-width="10.4593" stroke-linecap="round" stroke-linejoin="round" stroke-miterlimit="10" d="
					M881.368,320.761"/>
				<path fill="#028DFF" d="M764.026,1138.382c-0.34,0-0.684-0.009-1.029-0.023c-13.389-0.557-23.788-11.862-23.235-25.252
					l33.403-802.774c0.562-13.387,11.785-23.743,25.256-23.235c13.389,0.557,23.788,11.862,23.235,25.252l-33.403,802.774
					C787.71,1128.169,776.962,1138.382,764.026,1138.382z"/>
				<path fill="#028DFF" d="M591.912,1137.868c-13.403,0-24.264-10.863-24.264-24.264V312.867c0-13.401,10.861-24.264,24.264-24.264
					c13.403,0,24.264,10.863,24.264,24.264v800.737C616.176,1127.005,605.315,1137.868,591.912,1137.868z"/>
			</g>
			<path fill="#028DFF" d="M709.19,183.454c-13.403,0-24.264-10.863-24.264-24.264v-38.56c0-10.673-7.721-22.103-19.212-22.103
				H529.406c-11.35,0-18.378,11.473-18.378,22.103v38.56c0,13.401-10.861,24.264-24.264,24.264
				c-13.403,0-24.264-10.863-24.264-24.264v-38.56c0-38.947,30.014-70.631,66.906-70.631h136.309
				c37.354,0,67.74,31.684,67.74,70.631v38.56C733.454,172.591,722.593,183.454,709.19,183.454z"/>
			<path fill="#0B1153" d="M1007.495,329.043h-814.99c-40.671,0-73.757-33.086-73.757-73.755v-14.255
				c0-40.669,33.086-73.755,73.757-73.755h814.99c40.671,0,73.757,33.086,73.757,73.755v14.255
				C1081.252,295.957,1048.166,329.043,1007.495,329.043z M192.505,215.806c-13.91,0-25.229,11.316-25.229,25.227v14.255
				c0,13.91,11.319,25.227,25.229,25.227h814.99c13.91,0,25.229-11.316,25.229-25.227v-14.255c0-13.91-11.319-25.227-25.229-25.227
				H192.505z"/>
			<path fill="#0B1153" d="M867.484,1150H327.631c-39.502,0-74.894-30.916-80.576-70.384c-0.068-0.48-0.122-0.963-0.163-1.448
				l-63.793-767.336c-0.562-6.76,1.735-13.448,6.33-18.442c4.595-4.991,11.069-7.832,17.853-7.832h780.553
				c6.783,0,13.258,2.841,17.853,7.832c4.594,4.993,6.892,11.681,6.33,18.442l-63.793,767.336c-0.041,0.483-0.095,0.965-0.163,1.443
				C942.383,1119.082,906.991,1150,867.484,1150z M295.184,1073.311c2.542,15.329,17.254,28.161,32.447,28.161h539.853
				c15.197,0,29.91-12.832,32.447-28.156l61.537-740.229H233.647L295.184,1073.311z"/>
		</g>
	</g>
</g>
</svg>
