<?xml version="1.0" encoding="utf-8"?>
<!-- Generator: Adobe Illustrator 19.1.1, SVG Export Plug-In . SVG Version: 6.00 Build 0)  -->
<svg version="1.1" id="Layer_1" xmlns="http://www.w3.org/2000/svg" xmlns:xlink="http://www.w3.org/1999/xlink" x="0px" y="0px"
	 viewBox="0 0 1200 1200" enable-background="new 0 0 1200 1200" xml:space="preserve">
<g>
	<g>
		<path fill="#0B1153" d="M599.999,1149.999C296.729,1149.999,50,903.272,50,600S296.729,50.001,599.999,50.001
			S1150,296.728,1150,600S903.269,1149.999,599.999,1149.999z M599.999,99.177C323.845,99.177,99.176,323.846,99.176,600
			s224.668,500.823,500.823,500.823c276.157,0,500.825-224.668,500.825-500.823S876.155,99.177,599.999,99.177z"/>
	</g>
	<g>
		<path fill="#028DFF" d="M572.497,839.325c-6.293,0-12.586-2.401-17.386-7.2c-9.603-9.606-9.603-25.171,0-34.777L752.459,600
			L555.111,402.656c-9.603-9.606-9.603-25.171,0-34.777c9.601-9.596,25.171-9.596,34.772,0l214.739,214.732
			c4.61,4.615,7.2,10.868,7.2,17.388s-2.59,12.774-7.2,17.388L589.883,832.125C585.083,836.923,578.79,839.325,572.497,839.325z"/>
		<path fill="#028DFF" d="M382.815,839.325c-6.293,0-12.586-2.401-17.386-7.2c-9.603-9.606-9.603-25.171,0-34.777L562.777,600
			L365.429,402.656c-9.603-9.606-9.603-25.171,0-34.777c9.601-9.596,25.171-9.596,34.772,0l214.737,214.732
			c4.612,4.615,7.202,10.868,7.202,17.388s-2.59,12.774-7.202,17.388L400.201,832.125
			C395.401,836.923,389.108,839.325,382.815,839.325z"/>
	</g>
</g>
</svg>
