<?xml version="1.0" encoding="utf-8"?>
<!-- Generator: Adobe Illustrator 19.1.1, SVG Export Plug-In . SVG Version: 6.00 Build 0)  -->
<svg version="1.1" id="Layer_1" xmlns="http://www.w3.org/2000/svg" xmlns:xlink="http://www.w3.org/1999/xlink" x="0px" y="0px"
	 viewBox="0 0 1200 1200" enable-background="new 0 0 1200 1200" xml:space="preserve">
<g>
	<g>
		<path fill="#0B1153" d="M599.078,1092.568c-8.718,0-16.806-4.54-21.344-11.984c-12.287-20.151-300.915-495.452-300.915-664.698
			c0-177.693,144.564-322.257,322.259-322.257c177.693,0,322.255,144.564,322.255,322.257
			c0,169.246-288.624,644.547-300.908,664.698C615.884,1088.028,607.796,1092.568,599.078,1092.568z M599.078,143.628
			c-150.124,0-272.261,122.135-272.261,272.258c0,130.323,204.669,488.246,272.261,602.886
			c67.589-114.639,272.256-472.563,272.256-602.886C871.334,265.763,749.2,143.628,599.078,143.628z"/>
		<path fill="#028DFF" d="M1125.001,1106.37H74.999c-13.807,0-24.999-11.193-24.999-24.999s11.192-24.999,24.999-24.999h1050.001
			c13.809,0,24.999,11.193,24.999,24.999S1138.81,1106.37,1125.001,1106.37z"/>
		<path fill="#028DFF" d="M599.078,595.26c-100.536,0-182.327-81.79-182.327-182.327s81.79-182.329,182.327-182.329
			s182.326,81.793,182.326,182.329S699.614,595.26,599.078,595.26z M599.078,280.604c-72.965,0-132.328,59.363-132.328,132.33
			c0,72.965,59.363,132.328,132.328,132.328s132.328-59.363,132.328-132.328C731.406,339.967,672.043,280.604,599.078,280.604z"/>
	</g>
</g>
</svg>
