<?xml version="1.0" encoding="utf-8"?>
<!-- Generator: Adobe Illustrator 19.1.1, SVG Export Plug-In . SVG Version: 6.00 Build 0)  -->
<svg version="1.1" id="Layer_1" xmlns="http://www.w3.org/2000/svg" xmlns:xlink="http://www.w3.org/1999/xlink" x="0px" y="0px"
	 viewBox="0 0 1200 1200" enable-background="new 0 0 1200 1200" xml:space="preserve">
<g>
	<g>
		<path fill="#028DFF" d="M319.294,355.809H77.385C62.261,355.809,50,343.548,50,328.424V86.515C50,71.39,62.261,59.13,77.385,59.13
			h241.909c15.124,0,27.385,12.261,27.385,27.385v241.909C346.679,343.548,334.419,355.809,319.294,355.809z M104.77,301.039
			h187.139V113.9H104.77V301.039z"/>
		<path fill="#028DFF" d="M720.955,355.809H479.045c-15.124,0-27.385-12.261-27.385-27.385V86.515
			c0-15.124,12.261-27.385,27.385-27.385h241.909c15.124,0,27.385,12.261,27.385,27.385v241.909
			C748.34,343.548,736.079,355.809,720.955,355.809z M506.431,301.039h187.139V113.9H506.431V301.039z"/>
		<path fill="#0B1153" d="M1122.615,355.809H880.706c-15.124,0-27.385-12.261-27.385-27.385V86.515
			c0-15.124,12.261-27.385,27.385-27.385h241.909c15.124,0,27.385,12.261,27.385,27.385v241.909
			C1150,343.548,1137.739,355.809,1122.615,355.809z M908.091,301.039h187.139V113.9H908.091V301.039z"/>
		<path fill="#028DFF" d="M319.294,748.341H77.385C62.261,748.341,50,736.08,50,720.956V479.047
			c0-15.124,12.261-27.385,27.385-27.385h241.909c15.124,0,27.385,12.261,27.385,27.385v241.909
			C346.679,736.08,334.419,748.341,319.294,748.341z M104.77,693.571h187.139V506.432H104.77V693.571z"/>
		<path fill="#028DFF" d="M720.955,748.341H479.045c-15.124,0-27.385-12.261-27.385-27.385V479.047
			c0-15.124,12.261-27.385,27.385-27.385h241.909c15.124,0,27.385,12.261,27.385,27.385v241.909
			C748.34,736.08,736.079,748.341,720.955,748.341z M506.431,693.571h187.139V506.432H506.431V693.571z"/>
		<path fill="#0B1153" d="M1122.615,748.341H880.706c-15.124,0-27.385-12.261-27.385-27.385V479.047
			c0-15.124,12.261-27.385,27.385-27.385h241.909c15.124,0,27.385,12.261,27.385,27.385v241.909
			C1150,736.08,1137.739,748.341,1122.615,748.341z M908.091,693.571h187.139V506.432H908.091V693.571z"/>
		<path fill="#0B1153" d="M319.294,1140.87H77.385c-15.124,0-27.385-12.261-27.385-27.385V871.579
			c0-15.124,12.261-27.385,27.385-27.385h241.909c15.124,0,27.385,12.261,27.385,27.385v241.907
			C346.679,1128.61,334.419,1140.87,319.294,1140.87z M104.77,1086.1h187.139V898.964H104.77V1086.1z"/>
		<path fill="#0B1153" d="M720.955,1140.87H479.045c-15.124,0-27.385-12.261-27.385-27.385V871.579
			c0-15.124,12.261-27.385,27.385-27.385h241.909c15.124,0,27.385,12.261,27.385,27.385v241.907
			C748.34,1128.61,736.079,1140.87,720.955,1140.87z M506.431,1086.1h187.139V898.964H506.431V1086.1z"/>
		<path fill="#0B1153" d="M1122.615,1140.87H880.706c-15.124,0-27.385-12.261-27.385-27.385V871.579
			c0-15.124,12.261-27.385,27.385-27.385h241.909c15.124,0,27.385,12.261,27.385,27.385v241.907
			C1150,1128.61,1137.739,1140.87,1122.615,1140.87z M908.091,1086.1h187.139V898.964H908.091V1086.1z"/>
	</g>
</g>
</svg>
