<?xml version="1.0" encoding="utf-8"?>
<!-- Generator: Adobe Illustrator 19.1.1, SVG Export Plug-In . SVG Version: 6.00 Build 0)  -->
<svg version="1.1" id="Layer_1" xmlns="http://www.w3.org/2000/svg" xmlns:xlink="http://www.w3.org/1999/xlink" x="0px" y="0px"
	 viewBox="0 0 1200 1200" enable-background="new 0 0 1200 1200" xml:space="preserve">
<g>
	<path fill="#0B1153" d="M600,1150c-303.273,0-550-246.727-550-550S296.727,50,600,50s550,246.727,550,550S903.273,1150,600,1150z
		 M600,99.176C323.845,99.176,99.176,323.845,99.176,600S323.845,1100.824,600,1100.824S1100.824,876.155,1100.824,600
		S876.155,99.176,600,99.176z"/>
	<g>
		<path fill="#028DFF" d="M600.579,902.217c-22.696,0.005-45.544-2.571-68.213-7.778c-13.233-3.04-21.498-16.231-18.458-29.469
			c3.04-13.238,16.218-21.512,29.469-18.458c135.94,31.242,271.912-53.956,303.135-189.887
			c31.223-135.926-53.961-271.912-189.887-303.135c-65.839-15.125-133.635-3.71-190.897,32.164
			c-57.253,35.861-97.113,91.879-112.238,157.723c-3.035,13.233-16.218,21.503-29.469,18.458
			c-13.233-3.04-21.498-16.231-18.458-29.469c18.064-78.646,65.674-145.55,134.062-188.39
			c68.383-42.84,149.357-56.486,228.012-38.414c162.356,37.293,264.097,199.718,226.804,362.074
			c-18.064,78.646-65.674,145.555-134.062,188.39C711.701,886.518,656.633,902.217,600.579,902.217z"/>
		<g>
			<g>
				<path fill="#028DFF" d="M324.222,570.65c-9.56,0-18.647-5.611-22.632-14.964l-45.439-106.682
					c-5.322-12.494,0.491-26.935,12.99-32.256c12.48-5.313,26.93,0.491,32.256,12.99l35.801,84.059l84.068-35.806
					c12.485-5.313,26.935,0.491,32.256,12.99c5.322,12.494-0.496,26.935-12.99,32.256l-106.687,45.439
					C330.705,570.012,327.436,570.65,324.222,570.65z"/>
			</g>
		</g>
	</g>
</g>
</svg>
