<?xml version="1.0" encoding="utf-8"?>
<!-- Generator: Adobe Illustrator 19.1.1, SVG Export Plug-In . SVG Version: 6.00 Build 0)  -->
<svg version="1.1" id="Layer_1" xmlns="http://www.w3.org/2000/svg" xmlns:xlink="http://www.w3.org/1999/xlink" x="0px" y="0px"
	 viewBox="0 0 1200 1200" enable-background="new 0 0 1200 1200" xml:space="preserve">
<g>
	<path fill="#028DFF" d="M729.316,809.886c-13.292,0-24.067-10.775-24.067-24.067v-5.135c0-87.15,37.894-143.057,94.79-200.192
		c53.325-53.543,82.694-124.394,82.694-199.497c0-78.46-32.984-154.068-90.491-207.436c-58.258-54.062-134.277-80.55-214.023-74.588
		c-140.745,10.524-252.742,124.875-260.512,265.991c-4.539,82.44,26.373,162.243,84.808,218.949
		c64.02,62.128,90.132,119.141,90.132,196.792v5.117c0,13.292-10.775,24.067-24.067,24.067s-24.067-10.775-24.067-24.067v-5.117
		c0-64.02-21.175-109.509-75.521-162.248c-68.442-66.415-104.653-159.774-99.347-256.139
		c9.097-165.176,140.21-299.027,304.984-311.346c93.253-6.993,182.174,24.031,250.357,87.307
		c67.289,62.447,105.882,150.913,105.882,242.719c0,87.925-34.348,170.837-96.72,233.465
		c-49.86,50.067-80.763,95.336-80.763,166.223v5.135C753.383,799.111,742.608,809.886,729.316,809.886z"/>
	<path fill="#028DFF" d="M600.953,785.819c-13.292,0-24.067-10.775-24.067-24.067V521.071c0-13.292,10.775-24.067,24.067-24.067
		c13.292,0,24.067,10.775,24.067,24.067v240.681C625.02,775.044,614.245,785.819,600.953,785.819z"/>
	<path fill="#028DFF" d="M595.648,544.113c-59.478,0-96.673-52.485-98.226-54.719c-7.591-10.912-4.899-25.91,6.013-33.501
		c10.908-7.591,25.91-4.903,33.501,6.013c0.173,0.24,24.634,34.072,58.712,34.072c33.932,0,57.838-33.66,58.076-34
		c7.577-10.856,22.548-13.6,33.442-6.079c10.897,7.524,13.708,22.382,6.243,33.317C691.88,491.46,655.258,544.113,595.648,544.113z"
		/>
	<g>
		<path fill="#0B1153" d="M600.18,1150c-76.768,0-139.221-53.429-139.221-119.1c0-13.292,10.775-24.067,24.067-24.067
			c13.292,0,24.067,10.775,24.067,24.067c0,39.132,40.863,70.966,91.087,70.966c50.224,0,91.087-31.833,91.087-70.966
			c0-13.292,10.775-24.067,24.067-24.067c13.292,0,24.067,10.775,24.067,24.067C739.401,1096.571,676.948,1150,600.18,1150z"/>
		<path fill="#0B1153" d="M748.168,898.135H453.739c-33.842,0-61.372-27.532-61.372-61.375v-1.6
			c0-33.842,27.53-61.375,61.372-61.375h294.429c33.842,0,61.375,27.532,61.375,61.375v1.6
			C809.542,870.602,782.01,898.135,748.168,898.135z M453.739,821.92c-7.299,0-13.238,5.939-13.238,13.24v1.6
			c0,7.301,5.939,13.24,13.238,13.24h294.429c7.301,0,13.24-5.939,13.24-13.24v-1.6c0-7.301-5.939-13.24-13.24-13.24H453.739z"/>
		<path fill="#0B1153" d="M748.168,970.339H453.739c-33.842,0-61.372-27.53-61.372-61.372v-1.602
			c0-33.842,27.53-61.375,61.372-61.375h294.429c33.842,0,61.375,27.532,61.375,61.375v1.602
			C809.542,942.809,782.01,970.339,748.168,970.339z M453.739,894.124c-7.299,0-13.238,5.939-13.238,13.24v1.602
			c0,7.299,5.939,13.238,13.238,13.238h294.429c7.301,0,13.24-5.939,13.24-13.238v-1.602c0-7.301-5.939-13.24-13.24-13.24H453.739z"
			/>
		<path fill="#0B1153" d="M748.168,1046.554H453.739c-33.842,0-61.372-27.532-61.372-61.375v-1.6
			c0-33.842,27.53-61.375,61.372-61.375h294.429c33.842,0,61.375,27.532,61.375,61.375v1.6
			C809.542,1019.021,782.01,1046.554,748.168,1046.554z M453.739,970.339c-7.299,0-13.238,5.939-13.238,13.24v1.6
			c0,7.301,5.939,13.24,13.238,13.24h294.429c7.301,0,13.24-5.939,13.24-13.24v-1.6c0-7.301-5.939-13.24-13.24-13.24H453.739z"/>
	</g>
</g>
</svg>
