<?xml version="1.0" encoding="utf-8"?>
<!-- Generator: Adobe Illustrator 19.1.1, SVG Export Plug-In . SVG Version: 6.00 Build 0)  -->
<svg version="1.1" id="Layer_1" xmlns="http://www.w3.org/2000/svg" xmlns:xlink="http://www.w3.org/1999/xlink" x="0px" y="0px"
	 viewBox="0 0 1200 1200" enable-background="new 0 0 1200 1200" xml:space="preserve">
<g>
	<path fill="#0B1153" d="M599.999,1149.999C296.729,1149.999,50,903.272,50,600S296.729,50.001,599.999,50.001
		S1150,296.728,1150,600S903.269,1149.999,599.999,1149.999z M599.999,99.177C323.845,99.177,99.176,323.846,99.176,600
		s224.668,500.823,500.823,500.823c276.157,0,500.825-224.668,500.825-500.823S876.155,99.177,599.999,99.177z"/>
	<g>
		<g>
			<path fill="#028DFF" d="M598.966,846.249c-13.58,0-24.588-11.006-24.588-24.588V346.276c0-13.582,11.008-24.588,24.588-24.588
				c13.58,0,24.588,11.006,24.588,24.588v475.385C623.554,835.243,612.545,846.249,598.966,846.249z"/>
			<path fill="#028DFF" d="M599.999,877.559c-6.293,0-12.586-2.401-17.386-7.2L408.161,695.91c-9.603-9.606-9.603-25.171,0-34.777
				c9.601-9.596,25.171-9.596,34.772,0l157.066,157.066l157.066-157.066c9.601-9.596,25.169-9.596,34.775,0
				c9.601,9.606,9.601,25.171,0,34.777L617.385,870.36C612.584,875.158,606.292,877.559,599.999,877.559z"/>
		</g>
		<path fill="#028DFF" d="M816.166,370.864H385.861c-13.58,0-24.588-11.006-24.588-24.588s11.008-24.588,24.588-24.588h430.304
			c13.582,0,24.588,11.006,24.588,24.588S829.748,370.864,816.166,370.864z"/>
	</g>
</g>
</svg>
