<?xml version="1.0" encoding="utf-8"?>
<!-- Generator: Adobe Illustrator 19.1.1, SVG Export Plug-In . SVG Version: 6.00 Build 0)  -->
<svg version="1.1" id="Layer_1" xmlns="http://www.w3.org/2000/svg" xmlns:xlink="http://www.w3.org/1999/xlink" x="0px" y="0px"
	 viewBox="0 0 1200 1200" enable-background="new 0 0 1200 1200" xml:space="preserve">
<g>
	<path fill="#0B1153" d="M599.999,1149.999C296.729,1149.999,50,903.272,50,600S296.729,50.001,599.999,50.001
		S1150,296.728,1150,600S903.269,1149.999,599.999,1149.999z M599.999,99.177C323.845,99.177,99.176,323.846,99.176,600
		s224.668,500.823,500.823,500.823c276.157,0,500.825-224.668,500.825-500.823S876.155,99.177,599.999,99.177z"/>
	<g>
		<path fill="#028DFF" d="M405.869,818.713c-6.293,0-12.586-2.401-17.386-7.2c-9.603-9.606-9.603-25.171,0-34.777L776.74,388.482
			c9.608-9.596,25.174-9.592,34.775,0c9.601,9.606,9.601,25.171,0,34.777L423.256,811.513
			C418.455,816.312,412.162,818.713,405.869,818.713z"/>
		<path fill="#028DFF" d="M794.126,818.713c-6.295,0-12.586-2.401-17.386-7.2L388.483,423.259c-9.603-9.606-9.603-25.171,0-34.777
			c9.601-9.596,25.171-9.596,34.772,0l388.259,388.254c9.601,9.606,9.601,25.171,0,34.777
			C806.712,816.312,800.421,818.713,794.126,818.713z"/>
	</g>
</g>
</svg>
