<?xml version="1.0" encoding="utf-8"?>
<!-- Generator: Adobe Illustrator 19.1.1, SVG Export Plug-In . SVG Version: 6.00 Build 0)  -->
<svg version="1.1" id="Layer_1" xmlns="http://www.w3.org/2000/svg" xmlns:xlink="http://www.w3.org/1999/xlink" x="0px" y="0px"
	 viewBox="0 0 1200 1200" enable-background="new 0 0 1200 1200" xml:space="preserve">
<g>
	<g>
		<path fill="#028DFF" d="M615.095,1150h-29.337c-2.728,0-5.439-0.439-8.029-1.302c-3.968-1.321-8.233-2.472-12.752-3.691
			c-8.648-2.332-18.452-4.977-28.04-9.481c-43.382-20.376-71.121-55.091-82.452-103.182c-0.648-2.74-0.911-5.342-1.105-7.562
			c-0.142-1.402-0.178-1.399-0.13-3.492c0.005-0.266,0.017-0.873,0.017-2.55c0-14.031,11.374-25.405,25.405-25.405h243.666
			c7.019,0,13.722,2.901,18.526,8.02c4.801,5.117,7.273,11.993,6.829,18.998c-1.435,22.568-8.924,38.553-16.804,52.463
			c-23.13,40.849-58.402,66.005-104.878,74.817C622.522,1149.21,618.874,1150,615.095,1150z M589.7,1099.191h19.937
			c1.174-0.38,2.453-0.704,3.828-0.932c33.142-5.503,57.09-22.015,73.208-50.479c0.705-1.245,1.373-2.453,2.007-3.634H512.025
			c9.661,20.345,25.027,35.298,46.511,45.391c5.541,2.602,12.406,4.452,19.674,6.414
			C581.946,1096.959,585.774,1097.99,589.7,1099.191z"/>
		<path fill="#028DFF" d="M998.861,1044.145h-797.74c-14.031,0-25.405-11.374-25.405-25.405v-13.976
			c0-8.779,0.104-17.558,0.209-26.334c0.114-9.531,0.228-19.059,0.202-28.588c-0.05-22.596,15.857-29.684,22.698-31.683
			c19.337-5.643,35.645-18.073,52.889-40.303c34.879-44.964,52.709-98.449,65.554-144.839
			c10.392-37.535,18.115-77.936,23.609-123.51c5.484-45.498,8.267-91.215,8.269-135.885c0.002-52.878,14.346-100.926,42.638-142.811
			c31.634-46.836,72.874-79.174,122.575-96.115c18.829-6.419,38.045-10.423,56.63-14.299l6.604-1.381
			c1.72-0.361,3.473-0.543,5.23-0.543h35.206c3.243,0,6.457,0.621,9.467,1.829c3.653,1.466,8.378,2.045,13.848,2.711
			c4.08,0.498,8.703,1.065,13.57,2.095c46.084,9.763,87.194,32.212,122.186,66.721c26.031,25.673,45.678,56.096,58.397,90.422
			c10.769,29.065,16.237,60.535,16.248,93.534c0.029,71.119,6.727,140.774,19.909,207.034
			c9.455,47.541,21.799,88.726,37.739,125.915c15.679,36.579,32.243,63.153,52.13,83.626c12.871,13.248,25.87,21.721,39.737,25.9
			c10.836,3.269,22.589,13.556,22.791,28.419c0.254,19.304,0.24,37.673,0.223,57.119l-0.01,14.941
			C1024.266,1032.771,1012.892,1044.145,998.861,1044.145z M226.578,993.336h746.893c0.005-10.534-0.007-20.838-0.078-31.226
			c-17.183-7.353-33.092-18.677-48.311-34.345c-24.359-25.077-44.184-56.54-62.387-99.016
			c-17.349-40.477-30.72-84.967-40.875-136.018c-13.827-69.51-20.853-142.496-20.881-216.928
			c-0.012-27.34-4.291-52.168-13.084-75.901c-10.114-27.297-25.737-51.488-46.43-71.899c-27.964-27.575-60.611-45.472-97.038-53.188
			c-2.697-0.572-5.857-0.958-9.201-1.366c-6.172-0.754-13.589-1.66-21.51-4.168h-28.223l-4.094,0.856
			c-17.079,3.56-34.739,7.242-50.605,12.65c-38.98,13.286-71.569,39.013-96.865,76.463c-22.513,33.332-33.93,71.814-33.932,114.375
			c-0.002,46.691-2.906,94.455-8.634,141.962c-5.8,48.126-14.005,90.973-25.084,130.987
			c-14.166,51.167-34.082,110.478-74.373,162.421c-20.115,25.936-41.036,43.083-64.958,53.058c-0.038,5.7-0.107,11.341-0.173,16.984
			C226.675,983.803,226.618,988.568,226.578,993.336z"/>
		<path fill="#0B1153" d="M342.139,379.13c-12.15,0-22.893-8.743-25.011-21.125c-2.365-13.829,6.926-26.958,20.758-29.326
			l3.61-0.617c71.342-12.192,134.319-22.957,205.63-78.935c-52.792-13.042-114.148-29.221-153.986-52.228
			c-13.715-7.92-31.019-19.221-43.216-36.454c-14.707-20.789-18.521-46.767-9.958-67.805c8.85-21.745,30.407-37.694,56.258-41.62
			c22.47-3.42,43.85,2.455,57.97,7.166c78.595,26.216,143.827,91.269,170.265,169.789c0.083,0.24,0.161,0.482,0.235,0.723
			c1.845,5.973,1.376,12.133-0.923,17.491c-0.486,1.136-1.056,2.239-1.708,3.3c-1.21,1.969-2.688,3.779-4.407,5.368
			c-97.724,94.258-180.242,108.357-267.602,123.287l-3.601,0.617C345.005,379.009,343.563,379.13,342.139,379.13z M410.125,100.804
			c-2.204,0-4.289,0.152-6.272,0.453c-7.866,1.196-14.785,5.529-16.825,10.544c-1.995,4.901-0.197,12.835,4.372,19.294
			c6.461,9.128,17.352,16.144,27.153,21.804c32.85,18.972,87.505,33.676,135.987,45.719c-26.937-42.661-68.637-76.29-116.425-92.23
			C426.845,102.628,417.765,100.804,410.125,100.804z"/>
		<path fill="#0B1153" d="M858.792,379.13c-1.423,0-2.865-0.119-4.315-0.368l-3.603-0.617
			c-87.36-14.93-169.879-29.029-267.602-123.287c-1.71-1.582-3.186-3.385-4.391-5.347c-0.655-1.06-1.226-2.161-1.713-3.297
			c-2.313-5.382-2.785-11.578-0.913-17.582c0.069-0.218,0.14-0.434,0.214-0.65c26.441-78.522,91.677-143.58,170.27-169.796
			c14.118-4.711,35.5-10.582,57.968-7.166c25.848,3.926,47.405,19.873,56.26,41.62c8.563,21.042,4.746,47.023-9.958,67.803
			c-12.199,17.235-29.504,28.536-43.216,36.456c-39.841,23.006-101.196,39.186-153.988,52.228
			c71.308,55.978,134.286,66.742,205.628,78.935l3.613,0.617c13.831,2.367,23.123,15.497,20.758,29.326
			C881.685,370.385,870.942,379.13,858.792,379.13z M790.807,100.804c-7.64,0-16.721,1.824-27.988,5.584
			c-47.787,15.94-89.488,49.566-116.425,92.23c48.477-12.043,103.137-26.747,135.987-45.719c9.799-5.66,20.689-12.676,27.153-21.809
			c4.569-6.454,6.367-14.389,4.372-19.292c-2.04-5.01-8.962-9.346-16.827-10.541C795.096,100.956,793.011,100.804,790.807,100.804z"
			/>
	</g>
</g>
</svg>
