<?xml version="1.0" encoding="utf-8"?>
<!-- Generator: Adobe Illustrator 19.1.1, SVG Export Plug-In . SVG Version: 6.00 Build 0)  -->
<svg version="1.1" id="Layer_1" xmlns="http://www.w3.org/2000/svg" xmlns:xlink="http://www.w3.org/1999/xlink" x="0px" y="0px"
	 viewBox="0 0 1200 1200" enable-background="new 0 0 1200 1200" xml:space="preserve">
<g>
	<g>
		<path fill="#028DFF" d="M1028.383,1150H194.009c-14.785,0-26.771-11.985-26.771-26.771V128.227
			c0-14.785,11.986-26.771,26.771-26.771h571.123c14.785,0,26.771,11.986,26.771,26.771s-11.986,26.771-26.771,26.771H220.78
			v941.462h780.833V128.227c0-14.785,11.983-26.771,26.771-26.771c14.787,0,26.771,11.986,26.771,26.771v995.003
			C1055.154,1138.015,1043.171,1150,1028.383,1150z"/>
		<g>
			<path fill="#0B1153" d="M574.394,923.358c-6.851,0-13.703-2.612-18.929-7.841c-10.456-10.453-10.456-27.405,0-37.859
				l485.242-485.245c65.979-65.977,65.979-173.329,0-239.308c-65.979-65.972-173.326-65.977-239.305,0L323.783,630.721
				c-33.025,33.027-33.025,86.768,0.003,119.795c33.025,33.03,86.766,33.025,119.795,0l338.196-338.194
				c10.456-10.456,27.408-10.456,37.861,0c10.453,10.453,10.453,27.405,0,37.859L481.439,788.375
				c-53.906,53.909-141.614,53.904-195.515,0c-53.901-53.904-53.901-141.609-0.003-195.513l477.621-477.616
				c86.856-86.856,228.172-86.856,315.028,0c86.851,86.853,86.851,228.172,0,315.025L593.323,915.516
				C588.096,920.745,581.245,923.358,574.394,923.358z"/>
			<path fill="#0B1153" d="M367.155,1012.78c-79.607,0-159.211-30.302-219.814-90.905c-58.715-58.713-91.05-136.777-91.05-219.814
				c0-83.034,32.335-161.098,91.05-219.811L581.33,57.636c10.566-10.341,27.518-10.156,37.859,0.415
				c10.338,10.568,10.153,27.518-0.415,37.859L184.993,520.317c-48.392,48.394-75.158,113.014-75.158,181.745
				c0,68.734,26.766,133.353,75.365,181.955c48.602,48.599,113.221,75.365,181.952,75.365c68.734,0,133.353-26.766,181.955-75.365
				c10.453-10.458,27.405-10.458,37.859,0c10.456,10.453,10.456,27.405,0,37.859C526.364,982.478,446.76,1012.78,367.155,1012.78z"
				/>
		</g>
		<path fill="#028DFF" d="M194.009,1056.301c-14.785,0-26.771-11.985-26.771-26.771V382.555c0-14.785,11.986-26.771,26.771-26.771
			s26.771,11.986,26.771,26.771v646.975C220.78,1044.315,208.794,1056.301,194.009,1056.301z"/>
		<path fill="#028DFF" d="M1028.383,578.877c-14.788,0-26.771-11.986-26.771-26.771V324.549c0-14.785,11.983-26.771,26.771-26.771
			c14.787,0,26.771,11.986,26.771,26.771v227.557C1055.154,566.892,1043.171,578.877,1028.383,578.877z"/>
	</g>
</g>
</svg>
