<?xml version="1.0" encoding="utf-8"?>
<!-- Generator: Adobe Illustrator 19.1.1, SVG Export Plug-In . SVG Version: 6.00 Build 0)  -->
<svg version="1.1" id="Layer_1" xmlns="http://www.w3.org/2000/svg" xmlns:xlink="http://www.w3.org/1999/xlink" x="0px" y="0px"
	 viewBox="0 0 1200 1200" enable-background="new 0 0 1200 1200" xml:space="preserve">
<g>
	<g>
		<g>
			<path fill="#0B1153" d="M818.598,626.496H694.689c-13.907,0-25.177-11.272-25.177-25.177s11.27-25.177,25.177-25.177h123.909
				c84.477,0,153.209-68.866,153.209-153.514c0-84.4-68.732-152.814-153.209-152.814H254.081c-13.907,0-25.177-11.272-25.177-25.177
				c0-13.905,11.27-25.177,25.177-25.177h564.518c112.244,0,203.562,91.003,203.562,202.859
				C1022.161,535.042,930.843,626.496,818.598,626.496z"/>
			<path fill="#0B1153" d="M371.069,436.46c-6.446,0-12.887-2.457-17.805-7.374L185.213,261.034c-9.831-9.831-9.831-25.774,0-35.605
				L353.264,57.376c9.84-9.838,25.779-9.831,35.609,0s9.831,25.774,0,35.605L238.622,243.232l150.252,150.249
				c9.831,9.831,9.831,25.774,0,35.605C383.956,434.004,377.515,436.46,371.069,436.46z"/>
		</g>
		<g>
			<path fill="#028DFF" d="M946.461,983.178H381.403c-112.066,0-203.275-91.294-203.562-203.633c0-0.066,0-0.129,0-0.193
				c0-0.061,0-0.115,0-0.176c0-0.061,0-0.115,0-0.176c0-0.063,0-0.129,0-0.195c0.301-111.795,91.501-202.662,203.562-202.662
				h174.808c13.907,0,25.177,11.272,25.177,25.177s-11.27,25.177-25.177,25.177H381.403c-84.421,0-153.115,68.473-153.209,152.68
				c0.094,84.74,68.788,153.648,153.209,153.648h565.058c13.907,0,25.177,11.272,25.177,25.177S960.368,983.178,946.461,983.178z"/>
			<path fill="#028DFF" d="M828.928,1150c-6.446,0.002-12.887-2.457-17.805-7.374c-9.831-9.831-9.831-25.774,0-35.605
				l150.256-150.249L811.123,806.523c-9.831-9.831-9.831-25.774,0-35.605c9.836-9.836,25.774-9.836,35.609,0l168.056,168.052
				c4.72,4.72,7.372,11.124,7.372,17.802s-2.652,13.082-7.372,17.802l-168.056,168.052C841.814,1147.541,835.369,1150,828.928,1150z
				"/>
		</g>
	</g>
</g>
</svg>
