<?xml version="1.0" encoding="utf-8"?>
<!-- Generator: Adobe Illustrator 19.1.1, SVG Export Plug-In . SVG Version: 6.00 Build 0)  -->
<svg version="1.1" id="Layer_1" xmlns="http://www.w3.org/2000/svg" xmlns:xlink="http://www.w3.org/1999/xlink" x="0px" y="0px"
	 viewBox="0 0 1200 1200" enable-background="new 0 0 1200 1200" xml:space="preserve">
<g>
	<path fill="#0B1153" d="M600,1150c-303.271,0-550-246.727-550-550S296.729,50,600,50s550,246.727,550,550S903.271,1150,600,1150z
		 M600,99.176C323.845,99.176,99.176,323.845,99.176,600S323.845,1100.824,600,1100.824S1100.824,876.155,1100.824,600
		S876.155,99.176,600,99.176z"/>
	<g>
		<path fill="#028DFF" d="M598.923,901.046c-13.58,0-24.588-11.006-24.588-24.588V327.307c0-13.582,11.008-24.588,24.588-24.588
			s24.588,11.006,24.588,24.588v549.151C623.511,890.04,612.503,901.046,598.923,901.046z"/>
		<path fill="#028DFF" d="M873.501,626.471H324.346c-13.58,0-24.588-11.006-24.588-24.588c0-13.582,11.008-24.588,24.588-24.588
			h549.155c13.58,0,24.588,11.006,24.588,24.588C898.089,615.465,887.081,626.471,873.501,626.471z"/>
	</g>
</g>
</svg>
