<?xml version="1.0" encoding="utf-8"?>
<!-- Generator: Adobe Illustrator 19.1.1, SVG Export Plug-In . SVG Version: 6.00 Build 0)  -->
<svg version="1.1" id="Layer_1" xmlns="http://www.w3.org/2000/svg" xmlns:xlink="http://www.w3.org/1999/xlink" x="0px" y="0px"
	 viewBox="0 0 1200 1200" enable-background="new 0 0 1200 1200" xml:space="preserve">
<g>
	<path fill="#028DFF" d="M385.301,1080.818c-7.338,0-14.642-3.045-19.857-9.001c-9.6-10.96-8.496-27.629,2.466-37.229
		l239.558-209.805c10.957-9.6,27.629-8.501,37.229,2.466c9.6,10.96,8.496,27.629-2.466,37.229l-239.558,209.805
		C397.667,1078.667,391.472,1080.818,385.301,1080.818z"/>
	<path fill="#028DFF" d="M806.896,1032.232c-6.42,0-12.704-2.345-17.599-6.725L483.482,751.715
		c-5.503-4.929-8.688-11.938-8.782-19.323c-0.096-7.385,2.912-14.472,8.289-19.54l417.728-393.542l-539.68,344.863
		c-9.297,5.944-21.313,5.469-30.117-1.185L60.473,458.547c-8.001-6.05-11.881-16.116-10.009-25.972
		c1.872-9.856,9.171-17.796,18.835-20.491l1046.748-291.801c3.138-0.939,6.385-1.269,9.592-1.027c0.01,0,0.02,0.002,0.035,0.002l0,0
		c1.054,0.084,2.099,0.229,3.133,0.436c0.01,0.007,0.025,0.007,0.025,0.005c5.779,1.165,11.184,4.262,15.165,9.11
		c0.463,0.567,0.902,1.148,1.315,1.744c3.079,4.446,4.626,9.573,4.685,14.692c0.02,1.727-0.128,3.464-0.453,5.185
		c-0.296,1.586-0.739,3.148-1.325,4.668l-316.566,859.865c-3.02,8.203-9.903,14.376-18.387,16.488
		C811.158,1031.976,809.02,1032.232,806.896,1032.232z M540.081,731.562l255.474,228.721l264.583-718.671L540.081,731.562z
		 M134.818,448.6l213.276,161.224l612.577-391.448L134.818,448.6z"/>
	<path fill="#028DFF" d="M385.306,1080.82c-1.101,0-2.212-0.069-3.328-0.209c-12.265-1.554-21.808-11.415-22.956-23.727
		L320.561,644.39c-0.916-9.836,3.737-19.362,12.063-24.681l776.782-496.379c11.484-7.329,26.649-4.722,35.02,6.013
		c8.371,10.738,7.193,26.085-2.72,35.424L523.774,746.927l-113.651,316.425C406.324,1073.93,396.31,1080.82,385.306,1080.82z
		 M374.593,655.51l25.957,278.388l75.7-210.758c1.404-3.912,3.715-7.437,6.74-10.287l417.728-393.542L374.593,655.51z"/>
</g>
</svg>
