<?xml version="1.0" encoding="utf-8"?>
<!-- Generator: Adobe Illustrator 19.1.1, SVG Export Plug-In . SVG Version: 6.00 Build 0)  -->
<svg version="1.1" id="Layer_1" xmlns="http://www.w3.org/2000/svg" xmlns:xlink="http://www.w3.org/1999/xlink" x="0px" y="0px"
	 viewBox="0 0 1200 1200" enable-background="new 0 0 1200 1200" xml:space="preserve">
<g>
	<g>
		<path fill="#0B1153" d="M300.522,552.183C162.382,552.183,50,439.801,50,301.663s112.382-250.52,250.522-250.52
			c138.135,0,250.518,112.382,250.518,250.52S438.657,552.183,300.522,552.183z M300.522,100.66
			c-110.834,0-201.005,90.169-201.005,201.003s90.171,201.003,201.005,201.003s201-90.169,201-201.003
			S411.356,100.66,300.522,100.66z"/>
		<path fill="#0B1153" d="M899.482,552.183c-138.14,0-250.522-112.382-250.522-250.52s112.382-250.52,250.522-250.52
			c138.135,0,250.518,112.382,250.518,250.52S1037.618,552.183,899.482,552.183z M899.482,100.66
			c-110.834,0-201.005,90.169-201.005,201.003s90.171,201.003,201.005,201.003s201-90.169,201-201.003
			S1010.316,100.66,899.482,100.66z"/>
		<path fill="#028DFF" d="M899.482,416.475c-63.309,0-114.814-51.503-114.814-114.812s51.505-114.812,114.814-114.812
			s114.81,51.503,114.81,114.812S962.791,416.475,899.482,416.475z M899.482,236.368c-36.003,0-65.297,29.292-65.297,65.295
			s29.294,65.295,65.297,65.295c36.003,0,65.293-29.292,65.293-65.295S935.485,236.368,899.482,236.368z"/>
		<path fill="#0B1153" d="M300.522,1148.857C162.382,1148.857,50,1036.474,50,898.335c0-138.137,112.382-250.52,250.522-250.52
			c138.135,0,250.518,112.382,250.518,250.52C551.04,1036.474,438.657,1148.857,300.522,1148.857z M300.522,697.332
			c-110.834,0-201.005,90.169-201.005,201.003s90.171,201.005,201.005,201.005s201-90.171,201-201.005
			S411.356,697.332,300.522,697.332z"/>
		<path fill="#028DFF" d="M300.522,1013.147c-63.309,0-114.814-51.503-114.814-114.81c0-63.309,51.505-114.814,114.814-114.814
			s114.81,51.505,114.81,114.814C415.332,961.644,363.831,1013.147,300.522,1013.147z M300.522,833.04
			c-36.003,0-65.297,29.292-65.297,65.297c0,36.003,29.294,65.293,65.297,65.293s65.293-29.29,65.293-65.293
			C365.815,862.332,336.525,833.04,300.522,833.04z"/>
		<path fill="#0B1153" d="M899.482,1148.857c-138.14,0-250.522-112.382-250.522-250.522c0-138.137,112.382-250.52,250.522-250.52
			c138.135,0,250.518,112.382,250.518,250.52C1150,1036.474,1037.618,1148.857,899.482,1148.857z M899.482,697.332
			c-110.834,0-201.005,90.169-201.005,201.003s90.171,201.005,201.005,201.005s201-90.171,201-201.005
			S1010.316,697.332,899.482,697.332z"/>
		<path fill="#028DFF" d="M899.482,1013.147c-63.309,0-114.814-51.503-114.814-114.81c0-63.309,51.505-114.814,114.814-114.814
			s114.81,51.505,114.81,114.814C1014.292,961.644,962.791,1013.147,899.482,1013.147z M899.482,833.04
			c-36.003,0-65.297,29.292-65.297,65.297c0,36.003,29.294,65.293,65.297,65.293c36.003,0,65.293-29.29,65.293-65.293
			C964.775,862.332,935.485,833.04,899.482,833.04z"/>
	</g>
	<path fill="#028DFF" d="M300.522,396.479c-0.06,0-0.12,0-0.185,0c-6.598-0.049-12.909-2.732-17.523-7.453L180.197,284.038
		c-9.557-9.779-9.376-25.454,0.402-35.011c9.769-9.561,25.448-9.381,35.013,0.4l85.169,87.136l233.184-231.622
		c9.709-9.638,25.387-9.582,35.013,0.118c9.64,9.702,9.584,25.378-0.116,35.016L317.971,389.287
		C313.329,393.894,307.055,396.479,300.522,396.479z"/>
</g>
</svg>
