<?xml version="1.0" encoding="utf-8"?>
<!-- Generator: Adobe Illustrator 19.1.1, SVG Export Plug-In . SVG Version: 6.00 Build 0)  -->
<svg version="1.1" id="Layer_1" xmlns="http://www.w3.org/2000/svg" xmlns:xlink="http://www.w3.org/1999/xlink" x="0px" y="0px"
	 viewBox="0 0 1200 1200" enable-background="new 0 0 1200 1200" xml:space="preserve">
<g>
	<path fill="#0B1153" d="M600,1150c-303.273,0-550-246.727-550-550S296.727,50,600,50s550,246.727,550,550S903.273,1150,600,1150z
		 M600,99.176C323.845,99.176,99.176,323.845,99.176,600S323.845,1100.824,600,1100.824S1100.824,876.155,1100.824,600
		S876.155,99.176,600,99.176z"/>
	<g>
		<path fill="#028DFF" d="M711.43,864.676c-13.582,0-24.588-11.006-24.588-24.588c0-13.582,11.006-24.588,24.588-24.588
			c58.906,0,106.843-48.107,106.912-107.261c-0.069-58.654-48.047-106.356-107.003-106.356H394.506
			c-13.582,0-24.588-11.006-24.588-24.588c0-13.582,11.006-24.588,24.588-24.588h316.832c85.978,0,155.95,69.595,156.18,155.234
			c0,0.041,0,0.087,0,0.129c0,0.014,0,0.028,0,0.041c0,0.041,0,0.087,0,0.129s0,0.087,0,0.129c0,0.055,0,0.115,0,0.17
			C867.288,794.672,797.358,864.676,711.43,864.676z"/>
		<path fill="#028DFF" d="M572.776,816.551c-6.291,0-12.586-2.401-17.389-7.2L339.682,593.65c-4.61-4.615-7.2-10.868-7.2-17.389
			s2.59-12.774,7.2-17.388l215.706-215.706c9.606-9.597,25.171-9.597,34.777,0c9.601,9.606,9.601,25.171,0,34.777L391.843,576.261
			l198.322,198.313c9.601,9.606,9.601,25.171,0,34.777C585.362,814.149,579.071,816.551,572.776,816.551z"/>
	</g>
</g>
</svg>
