<?xml version="1.0" encoding="utf-8"?>
<!-- Generator: Adobe Illustrator 19.1.1, SVG Export Plug-In . SVG Version: 6.00 Build 0)  -->
<svg version="1.1" id="Layer_1" xmlns="http://www.w3.org/2000/svg" xmlns:xlink="http://www.w3.org/1999/xlink" x="0px" y="0px"
	 viewBox="0 0 1200 1200" enable-background="new 0 0 1200 1200" xml:space="preserve">
<g>
	<path fill="#0B1153" d="M600,1150c-303.271,0-550-246.727-550-550S296.729,50,600,50s550,246.727,550,550S903.271,1150,600,1150z
		 M600,99.176C323.845,99.176,99.176,323.845,99.176,600S323.845,1100.824,600,1100.824S1100.824,876.155,1100.824,600
		S876.155,99.176,600,99.176z"/>
	<path fill="#028DFF" d="M787.851,843.687c-6.913,0-13.782-2.897-18.644-8.545L580.561,616.043
		c-3.843-4.463-5.955-10.157-5.955-16.043V293.485c0-13.582,11.008-24.588,24.588-24.588s24.588,11.006,24.588,24.588v297.387
		l182.69,212.184c8.862,10.29,7.702,25.814-2.59,34.676C799.24,841.731,793.531,843.687,787.851,843.687z"/>
	<g>
		<g>
			<path fill="#028DFF" d="M904.724,925.216c-5.244,0-10.487-2.002-14.487-6.001l-18.826-18.821
				c-8.003-8.003-8.005-20.975-0.005-28.978c8.003-8.008,20.979-8.003,28.978-0.005l18.826,18.821
				c8.003,8.003,8.005,20.975,0.005,28.978C915.214,923.214,909.968,925.216,904.724,925.216z"/>
			<path fill="#028DFF" d="M314.099,334.594c-5.244,0-10.49-2.002-14.489-6.006l-18.826-18.826
				c-8.001-8.003-7.999-20.975,0.002-28.978c8.003-7.999,20.979-8.003,28.978,0.005l18.826,18.826
				c8.001,8.003,7.999,20.975-0.002,28.978C324.587,332.592,319.343,334.594,314.099,334.594z"/>
		</g>
		<g>
			<path fill="#028DFF" d="M1029.502,621.342h-24.588c-11.316,0-20.49-9.174-20.49-20.492c0-11.318,9.174-20.492,20.49-20.492
				h24.588c11.316,0,20.49,9.174,20.49,20.492C1049.992,612.168,1040.818,621.342,1029.502,621.342z"/>
			<path fill="#028DFF" d="M197.575,621.342h-28.689c-11.316,0-20.49-9.174-20.49-20.492c0-11.318,9.174-20.492,20.49-20.492h28.689
				c11.316,0,20.49,9.174,20.49,20.492C218.065,612.168,208.891,621.342,197.575,621.342z"/>
		</g>
		<g>
			<path fill="#028DFF" d="M885.898,334.594c-5.244,0-10.487-2.002-14.489-6.001c-8.003-8.003-8.003-20.979,0-28.982l18.826-18.826
				c8.003-7.999,20.975-7.999,28.978,0c8.003,8.003,8.003,20.979,0,28.982l-18.826,18.826
				C896.386,332.592,891.142,334.594,885.898,334.594z"/>
			<path fill="#028DFF" d="M295.276,925.216c-5.244,0-10.49-2.002-14.491-6.006c-8.001-8.003-7.999-20.975,0.002-28.978
				l18.823-18.821c8.003-7.999,20.977-8.003,28.98,0.005c8.001,8.003,7.999,20.975-0.002,28.978l-18.823,18.821
				C305.763,923.214,300.52,925.216,295.276,925.216z"/>
		</g>
		<g>
			<path fill="#028DFF" d="M599.194,215.625c-11.316,0-20.49-9.174-20.49-20.492v-24.588c0-11.318,9.174-20.492,20.49-20.492
				s20.49,9.174,20.49,20.492v24.588C619.684,206.451,610.51,215.625,599.194,215.625z"/>
			<path fill="#028DFF" d="M599.194,1051.647c-11.316,0-20.49-9.174-20.49-20.492v-28.684c0-11.318,9.174-20.492,20.49-20.492
				s20.49,9.174,20.49,20.492v28.684C619.684,1042.473,610.51,1051.647,599.194,1051.647z"/>
		</g>
	</g>
</g>
</svg>
