<?xml version="1.0" encoding="utf-8"?>
<!-- Generator: Adobe Illustrator 19.1.1, SVG Export Plug-In . SVG Version: 6.00 Build 0)  -->
<svg version="1.1" id="Layer_1" xmlns="http://www.w3.org/2000/svg" xmlns:xlink="http://www.w3.org/1999/xlink" x="0px" y="0px"
	 viewBox="0 0 1200 1200" enable-background="new 0 0 1200 1200" xml:space="preserve">
<g>
	<path fill="#0B1153" d="M525.778,977.39c-5.772,0-11.481-2.012-16.051-5.892L318.993,809.592h-61.302
		C143.17,809.592,50,715.982,50,600.919v-0.979c0-114.556,93.17-207.754,207.691-207.754h61.23L509.63,228.586
		c7.351-6.309,17.707-7.756,26.5-3.709c8.802,4.045,14.44,12.845,14.44,22.529v705.188c0,9.661-5.612,18.445-14.38,22.504
		C532.861,976.638,529.307,977.39,525.778,977.39z M257.691,441.778c-87.176,0-158.1,70.951-158.1,158.162v0.979
		c0,87.718,70.924,159.081,158.1,159.081h70.407c5.878,0,11.564,2.088,16.047,5.892l156.833,133.128V301.348L344.242,435.802
		c-4.494,3.857-10.222,5.975-16.144,5.975H257.691z"/>
	<g>
		<path fill="#028DFF" d="M635.257,828.801c-9.252,0-18.13-5.202-22.388-14.106c-5.906-12.354-0.681-27.159,11.675-33.068
			c33.026-15.79,61.853-41.303,81.171-71.836c30.533-48.265,38.624-108.74,22.198-165.92
			C711.876,488.052,674.05,442.303,624.13,418.36c-12.347-5.922-17.556-20.735-11.634-33.082
			c5.922-12.345,20.732-17.561,33.082-11.634c62.674,30.063,110.057,87.116,130,156.535
			c20.332,70.775,10.143,145.906-27.954,206.126c-24.592,38.87-59.755,70.014-101.688,90.065
			C642.487,828.019,638.843,828.801,635.257,828.801z"/>
		<path fill="#028DFF" d="M736.553,959.802c-9.252,0-18.13-5.202-22.388-14.106c-5.906-12.354-0.681-27.159,11.675-33.068
			c57.729-27.602,106.101-70.419,139.884-123.819c52.571-83.099,66.532-187.114,38.302-285.377
			c-27.588-96.032-92.777-174.788-178.848-216.072c-12.347-5.922-17.556-20.735-11.634-33.082
			c5.925-12.345,20.732-17.558,33.082-11.634c98.828,47.404,173.572,137.467,205.066,247.096
			c32.135,111.858,16.077,230.53-44.058,325.583c-38.777,61.295-94.242,110.414-160.401,142.048
			C743.784,959.019,740.139,959.802,736.553,959.802z"/>
		<path fill="#028DFF" d="M837.852,1090.8c-9.251,0-18.13-5.202-22.388-14.106c-5.906-12.356-0.681-27.16,11.676-33.068
			c81.953-39.182,150.626-99.972,198.595-175.799c74.607-117.931,94.437-265.49,54.405-404.836
			c-39.141-136.244-131.686-248.005-253.909-306.628c-12.347-5.922-17.556-20.733-11.634-33.082
			c5.925-12.347,20.73-17.558,33.082-11.634c134.978,64.742,237.08,187.81,280.126,337.652
			c43.938,152.944,22.01,315.155-60.16,445.042c-52.962,83.722-128.732,150.816-219.112,194.029
			C845.08,1090.017,841.438,1090.8,837.852,1090.8z"/>
	</g>
</g>
</svg>
