<?xml version="1.0" encoding="utf-8"?>
<!-- Generator: Adobe Illustrator 19.1.1, SVG Export Plug-In . SVG Version: 6.00 Build 0)  -->
<svg version="1.1" id="Layer_1" xmlns="http://www.w3.org/2000/svg" xmlns:xlink="http://www.w3.org/1999/xlink" x="0px" y="0px"
	 viewBox="0 0 1200 1200" enable-background="new 0 0 1200 1200" xml:space="preserve">
<g>
	<g>
		<path fill="#028DFF" d="M707.397,1039.564h-47.994c-12.047,0-21.814-9.767-21.814-21.814s9.767-21.814,21.814-21.814h47.994
			c12.047,0,21.814,9.767,21.814,21.814S719.445,1039.564,707.397,1039.564z"/>
		<path fill="#028DFF" d="M552.055,1039.564H444.706c-12.047,0-21.814-9.767-21.814-21.814s9.767-21.814,21.814-21.814h107.349
			c12.047,0,21.814,9.767,21.814,21.814S564.102,1039.564,552.055,1039.564z M337.354,1039.564H230.006
			c-12.047,0-21.814-9.767-21.814-21.814s9.767-21.814,21.814-21.814h107.349c12.047,0,21.814,9.767,21.814,21.814
			S349.402,1039.564,337.354,1039.564z"/>
		<path fill="#028DFF" d="M122.657,1039.564H74.663c-12.047,0-21.814-9.767-21.814-21.814v-47.994
			c0-12.047,9.767-21.814,21.814-21.814s21.814,9.767,21.814,21.814v26.18h26.18c12.047,0,21.814,9.767,21.814,21.814
			S134.704,1039.564,122.657,1039.564z"/>
		<path fill="#028DFF" d="M74.663,897.132c-12.047,0-21.814-9.767-21.814-21.814v-94.439c0-12.047,9.767-21.814,21.814-21.814
			s21.814,9.767,21.814,21.814v94.439C96.477,887.365,86.71,897.132,74.663,897.132z M74.663,708.254
			c-12.047,0-21.814-9.767-21.814-21.814v-94.439c0-12.047,9.767-21.814,21.814-21.814s21.814,9.767,21.814,21.814v94.439
			C96.477,698.487,86.71,708.254,74.663,708.254z M74.663,519.377c-12.047,0-21.814-9.767-21.814-21.814v-94.439
			c0-12.047,9.767-21.814,21.814-21.814s21.814,9.767,21.814,21.814v94.439C96.477,509.61,86.71,519.377,74.663,519.377z
			 M74.663,330.5c-12.047,0-21.814-9.767-21.814-21.814v-94.439c0-12.047,9.767-21.814,21.814-21.814s21.814,9.767,21.814,21.814
			v94.439C96.477,320.733,86.71,330.5,74.663,330.5z"/>
		<path fill="#028DFF" d="M74.663,141.623c-12.047,0-21.814-9.767-21.814-21.814V71.814C52.848,59.767,62.615,50,74.663,50h47.994
			c12.047,0,21.814,9.767,21.814,21.814s-9.767,21.814-21.814,21.814h-26.18v26.18C96.477,131.856,86.71,141.623,74.663,141.623z"/>
		<path fill="#028DFF" d="M878.166,93.629h-94.439c-12.047,0-21.814-9.767-21.814-21.814S771.68,50,783.727,50h94.439
			c12.047,0,21.814,9.767,21.814,21.814S890.213,93.629,878.166,93.629z M689.288,93.629H594.85
			c-12.047,0-21.814-9.767-21.814-21.814S582.802,50,594.85,50h94.439c12.047,0,21.814,9.767,21.814,21.814
			S701.336,93.629,689.288,93.629z M500.411,93.629h-94.439c-12.047,0-21.814-9.767-21.814-21.814S393.925,50,405.973,50h94.439
			c12.047,0,21.814,9.767,21.814,21.814S512.459,93.629,500.411,93.629z M311.534,93.629h-94.439
			c-12.047,0-21.814-9.767-21.814-21.814S205.048,50,217.095,50h94.439c12.047,0,21.814,9.767,21.814,21.814
			S323.581,93.629,311.534,93.629z"/>
		<path fill="#028DFF" d="M1020.596,141.623c-12.047,0-21.814-9.767-21.814-21.814v-26.18h-26.177
			c-12.047,0-21.814-9.767-21.814-21.814S960.557,50,972.604,50h47.992c12.047,0,21.814,9.767,21.814,21.814v47.994
			C1042.41,131.856,1032.643,141.623,1020.596,141.623z"/>
		<path fill="#028DFF" d="M1020.596,580.751c-12.047,0-21.814-9.767-21.814-21.814V449.156c0-12.047,9.767-21.814,21.814-21.814
			s21.814,9.767,21.814,21.814v109.781C1042.41,570.984,1032.643,580.751,1020.596,580.751z M1020.596,361.187
			c-12.047,0-21.814-9.767-21.814-21.814V229.592c0-12.047,9.767-21.814,21.814-21.814s21.814,9.767,21.814,21.814v109.781
			C1042.41,351.42,1032.643,361.187,1020.596,361.187z"/>
		<path fill="#028DFF" d="M1020.596,738.526c-12.047,0-21.814-9.767-21.814-21.814V668.72c0-12.047,9.767-21.814,21.814-21.814
			s21.814,9.767,21.814,21.814v47.992C1042.41,728.759,1032.643,738.526,1020.596,738.526z"/>
	</g>
	<path fill="#0B1153" d="M1021.752,1150c-6.7,0-13.399-2.554-18.51-7.667L833.833,972.926l-92.109,92.107
		c-6.206,6.206-15.117,8.897-23.716,7.144c-8.604-1.745-15.76-7.687-19.057-15.824L480.679,517.622
		c-3.947-9.745-1.682-20.908,5.754-28.34c7.433-7.435,18.593-9.699,28.34-5.754l538.731,218.269
		c8.137,3.297,14.079,10.454,15.824,19.057c1.748,8.604-0.936,17.508-7.144,23.716l-92.107,92.112l169.407,169.409
		c10.224,10.222,10.224,26.798,0,37.02l-99.222,99.222C1035.151,1147.446,1028.451,1150,1021.752,1150z M833.833,909.726
		c6.7,0,13.399,2.554,18.51,7.667l169.409,169.407l62.2-62.2L914.545,855.192c-10.224-10.222-10.224-26.798,0-37.02l82.682-82.685
		L552.426,555.275l180.215,444.801l82.682-82.682C820.434,912.281,827.133,909.726,833.833,909.726z"/>
	<g>
		<g>
			<path fill="#028DFF" d="M410.934,519.583h-52.357c-9.637,0-17.452-7.814-17.452-17.452c0-9.637,7.814-17.452,17.452-17.452
				h52.357c9.637,0,17.452,7.814,17.452,17.452C428.386,511.768,420.572,519.583,410.934,519.583z"/>
		</g>
		<g>
			<path fill="#028DFF" d="M568.274,453.198c-4.468,0-8.933-1.704-12.341-5.113c-6.817-6.814-6.814-17.865,0.002-24.679l35.7-35.697
				c6.817-6.817,17.867-6.814,24.679,0.002c6.817,6.814,6.814,17.865-0.002,24.679l-35.7,35.697
				C577.205,451.495,572.74,453.198,568.274,453.198z"/>
			<path fill="#028DFF" d="M402.309,619.166c-4.466,0-8.931-1.704-12.338-5.111c-6.817-6.814-6.819-17.865-0.002-24.679
				l35.697-35.702c6.814-6.814,17.867-6.814,24.681,0c6.814,6.817,6.814,17.865,0,24.681l-35.697,35.697
				C411.242,617.463,406.777,619.166,402.309,619.166z"/>
		</g>
		<g>
			<path fill="#028DFF" d="M502.557,427.96c-9.637,0-17.452-7.814-17.452-17.452v-52.355c0-9.637,7.814-17.452,17.452-17.452
				c9.637,0,17.452,7.814,17.452,17.452v52.355C520.009,420.146,512.195,427.96,502.557,427.96z"/>
		</g>
		<g>
			<path fill="#028DFF" d="M438.006,453.198c-4.466,0-8.934-1.704-12.341-5.111l-35.697-35.697c-6.814-6.817-6.814-17.865,0-24.681
				c6.814-6.814,17.867-6.814,24.681,0l35.697,35.697c6.814,6.817,6.814,17.865,0,24.681
				C446.94,451.495,442.472,453.198,438.006,453.198z"/>
		</g>
	</g>
</g>
</svg>
