<?xml version="1.0" encoding="utf-8"?>
<!-- Generator: Adobe Illustrator 19.1.1, SVG Export Plug-In . SVG Version: 6.00 Build 0)  -->
<svg version="1.1" id="Layer_1" xmlns="http://www.w3.org/2000/svg" xmlns:xlink="http://www.w3.org/1999/xlink" x="0px" y="0px"
	 viewBox="0 0 1200 1200" enable-background="new 0 0 1200 1200" xml:space="preserve">
<g>
	<path fill="#0B1153" d="M600,1150c-303.271,0-550-246.727-550-550S296.729,50,600,50s550,246.727,550,550S903.271,1150,600,1150z
		 M600,99.176C323.845,99.176,99.176,323.845,99.176,600S323.845,1100.824,600,1100.824S1100.824,876.155,1100.824,600
		S876.155,99.176,600,99.176z"/>
	<g>
		<g>
			<path fill="#028DFF" d="M600.895,875.921c-13.58,0-24.588-11.006-24.588-24.588V375.947c0-13.582,11.008-24.588,24.588-24.588
				s24.588,11.006,24.588,24.588v475.386C625.484,864.914,614.475,875.921,600.895,875.921z"/>
			<path fill="#028DFF" d="M774.452,546.067c-6.293,0-12.586-2.401-17.386-7.2L600,381.801L442.934,538.867
				c-9.601,9.597-25.171,9.597-34.772,0c-9.603-9.606-9.603-25.171,0-34.777l174.452-174.45c9.601-9.597,25.171-9.597,34.772,0
				l174.452,174.45c9.603,9.606,9.603,25.171,0,34.777C787.038,543.665,780.745,546.067,774.452,546.067z"/>
		</g>
		<path fill="#028DFF" d="M813.998,875.921H383.693c-13.58,0-24.588-11.006-24.588-24.588c0-13.582,11.008-24.588,24.588-24.588
			h430.305c13.58,0,24.588,11.006,24.588,24.588C838.586,864.914,827.578,875.921,813.998,875.921z"/>
	</g>
</g>
</svg>
