<?xml version="1.0" encoding="utf-8"?>
<!-- Generator: Adobe Illustrator 19.1.1, SVG Export Plug-In . SVG Version: 6.00 Build 0)  -->
<svg version="1.1" id="Layer_1" xmlns="http://www.w3.org/2000/svg" xmlns:xlink="http://www.w3.org/1999/xlink" x="0px" y="0px"
	 viewBox="0 0 1200 1200" enable-background="new 0 0 1200 1200" xml:space="preserve">
<g>
	<path fill="#0B1153" d="M599.999,1149.999C296.729,1149.999,50,903.272,50,600S296.729,50.001,599.999,50.001
		S1150,296.728,1150,600S903.269,1149.999,599.999,1149.999z M599.999,99.177C323.845,99.177,99.176,323.846,99.176,600
		s224.668,500.823,500.823,500.823c276.157,0,500.825-224.668,500.825-500.823S876.155,99.177,599.999,99.177z"/>
	<path fill="#028DFF" d="M599.999,907.974c-5.108,0-10.216-1.589-14.544-4.761c-11.562-8.481-283.244-209.603-292.937-374.241
		c-0.055-0.964-0.055-1.928,0-2.893c5.554-94.33,81.251-168.223,172.331-168.223c53.32,0,102.855,25.608,135.15,67.754
		c32.297-42.147,81.83-67.754,135.15-67.754c91.082,0,166.775,73.893,172.331,168.223c0.055,0.964,0.055,1.928,0,2.893
		c-9.693,164.637-281.375,365.76-292.937,374.241C610.215,906.385,605.107,907.974,599.999,907.974z M341.706,527.512
		c7.875,110.461,177.069,262.508,258.288,325.092c81.214-62.625,250.43-214.741,258.3-325.092
		c-4.706-67.676-58.529-120.48-123.145-120.48c-48.407,0-92.586,30.08-112.552,76.63c-3.875,9.036-12.765,14.895-22.598,14.895l0,0
		c-9.835,0-18.722-5.859-22.598-14.895c-19.964-46.55-64.143-76.63-112.552-76.63C400.233,407.032,346.41,459.836,341.706,527.512z"
		/>
</g>
</svg>
