<?xml version="1.0" encoding="utf-8"?>
<!-- Generator: Adobe Illustrator 19.1.1, SVG Export Plug-In . SVG Version: 6.00 Build 0)  -->
<svg version="1.1" id="Layer_1" xmlns="http://www.w3.org/2000/svg" xmlns:xlink="http://www.w3.org/1999/xlink" x="0px" y="0px"
	 viewBox="0 0 1200 1200" enable-background="new 0 0 1200 1200" xml:space="preserve">
<g>
	<path fill="#0B1153" d="M506.05,961.614c-5.586,0-11.11-1.968-15.511-5.755L307.65,798.351h-58.641
		c-109.385,0-198.44-88.419-199.008-197.307c0-0.12,0-0.24,0-0.359v-0.672c0-0.12,0-0.24,0-0.359
		c0.568-108.881,89.623-197.296,199.008-197.296h58.61l182.885-158.181c7.028-6.081,16.962-7.507,25.423-3.636
		c8.457,3.864,13.878,12.31,13.878,21.607v675.707c0,9.288-5.413,17.725-13.856,21.598
		C512.781,960.904,509.404,961.614,506.05,961.614z M97.518,600.349c0.182,83.008,68.069,150.483,151.49,150.483h67.462
		c5.692,0,11.194,2.041,15.507,5.755l150.31,129.45V314.111L332.012,444.087c-4.317,3.734-9.832,5.788-15.542,5.788h-67.462
		C165.588,449.875,97.7,517.346,97.518,600.349z"/>
	<g>
		<path fill="#028DFF" d="M636.257,868.752c-6.083,0-12.161-2.318-16.802-6.959c-9.277-9.277-9.277-24.323,0-33.6l489.983-489.983
			c9.282-9.282,24.323-9.282,33.604,0c9.277,9.277,9.277,24.323,0,33.6L653.059,861.792
			C648.418,866.433,642.34,868.752,636.257,868.752z"/>
		<path fill="#028DFF" d="M1126.24,868.752c-6.083,0-12.161-2.318-16.802-6.959L619.455,371.81c-9.277-9.277-9.277-24.323,0-33.6
			c9.282-9.282,24.323-9.282,33.604,0l489.983,489.983c9.277,9.277,9.277,24.323,0,33.6
			C1138.401,866.433,1132.323,868.752,1126.24,868.752z"/>
	</g>
</g>
</svg>
