<?xml version="1.0" encoding="utf-8"?>
<!-- Generator: Adobe Illustrator 19.1.1, SVG Export Plug-In . SVG Version: 6.00 Build 0)  -->
<svg version="1.1" id="Layer_1" xmlns="http://www.w3.org/2000/svg" xmlns:xlink="http://www.w3.org/1999/xlink" x="0px" y="0px"
	 viewBox="0 0 1200 1200" enable-background="new 0 0 1200 1200" xml:space="preserve">
<g>
	<g>
		<path fill="#028DFF" d="M647.565,1150c-14.816,0-26.822-12.006-26.822-26.822s12.006-26.822,26.822-26.822
			c140.87,0,255.475-114.604,255.475-255.472V565.755c0-24.125-19.629-43.754-43.751-43.754c-24.127,0-43.756,19.629-43.756,43.754
			c0,14.813-12.006,26.822-26.822,26.822c-14.816,0-26.822-12.008-26.822-26.822c0-24.125-19.629-43.754-43.751-43.754
			c-24.122,0-43.751,19.629-43.751,43.754c0,14.813-12.006,26.822-26.822,26.822s-26.822-12.008-26.822-26.822
			c0-24.125-19.629-43.754-43.751-43.754s-43.751,19.629-43.751,43.754c0,14.813-12.006,26.822-26.822,26.822
			c-14.816,0-26.822-12.008-26.822-26.822v-227.15c0-24.125-19.629-43.751-43.751-43.751c-24.127,0-43.756,19.627-43.756,43.751
			v381.962c0,14.813-12.006,26.822-26.822,26.822s-26.822-12.008-26.822-26.822V338.605c0-53.704,43.691-97.395,97.4-97.395
			c53.704,0,97.395,43.691,97.395,97.395v140.144c13.163-6.647,28.029-10.391,43.751-10.391c27.743,0,52.817,11.663,70.573,30.34
			c17.756-18.678,42.83-30.34,70.573-30.34s52.817,11.663,70.573,30.34c17.756-18.678,42.835-30.34,70.578-30.34
			c53.703,0,97.395,43.691,97.395,97.397v275.129C956.683,1011.331,818.012,1150,647.565,1150z"/>
		<path fill="#028DFF" d="M282.665,785.1c-14.816,0-26.822-12.008-26.822-26.822V635.239c0-53.703,43.691-97.395,97.395-97.395
			c14.816,0,26.822,12.008,26.822,26.822c0,14.813-12.006,26.822-26.822,26.822c-24.122,0-43.751,19.627-43.751,43.751v123.039
			C309.487,773.091,297.481,785.1,282.665,785.1z"/>
		<path fill="#028DFF" d="M647.565,667.197c-14.816,0-26.822-12.008-26.822-26.822v-74.62c0-14.813,12.006-26.822,26.822-26.822
			s26.822,12.008,26.822,26.822v74.62C674.387,655.189,662.381,667.197,647.565,667.197z"/>
		<path fill="#028DFF" d="M505.884,667.197c-14.816,0-26.822-12.008-26.822-26.822v-83.035c0-14.813,12.006-26.822,26.822-26.822
			s26.822,12.008,26.822,26.822v83.035C532.705,655.189,520.699,667.197,505.884,667.197z"/>
		<path fill="#028DFF" d="M788.711,667.197c-14.816,0-26.822-12.008-26.822-26.822v-74.62c0-14.813,12.006-26.822,26.822-26.822
			c14.816,0,26.822,12.008,26.822,26.822v74.62C815.533,655.189,803.527,667.197,788.711,667.197z"/>
		<path fill="#028DFF" d="M647.565,1150c-215.996,0-391.722-175.726-391.722-391.722c0-14.813,12.006-26.822,26.822-26.822
			s26.822,12.008,26.822,26.822c0,186.417,151.664,338.078,338.079,338.078c14.816,0,26.822,12.006,26.822,26.822
			S662.381,1150,647.565,1150z"/>
	</g>
	<g>
		<g>
			<path fill="#0B1153" d="M359.559,184.093c-5.249,0-10.503-2.003-14.505-6.01l-44.252-44.255c-8.014-8.011-8.014-21.002,0-29.013
				c8.004-8.009,21.007-8.011,29.01,0.003l44.252,44.255c8.014,8.011,8.014,21.002,0,29.013
				C370.062,182.09,364.808,184.093,359.559,184.093z"/>
		</g>
		<g>
			<path fill="#0B1153" d="M606.078,262.154h-60.585c-11.33,0-20.516-9.186-20.516-20.516s9.186-20.516,20.516-20.516h60.585
				c11.33,0,20.516,9.186,20.516,20.516S617.408,262.154,606.078,262.154z"/>
			<path fill="#0B1153" d="M324.418,262.154h-60.585c-11.33,0-20.516-9.186-20.516-20.516s9.186-20.516,20.516-20.516h60.585
				c11.33,0,20.516,9.186,20.516,20.516S335.747,262.154,324.418,262.154z"/>
		</g>
		<g>
			<path fill="#0B1153" d="M511.293,184.093c-5.249,0-10.498-2.003-14.505-6.008c-8.014-8.011-8.014-21.002,0-29.013l44.252-44.255
				c8.004-8.014,20.997-8.011,29.01-0.003c8.014,8.011,8.014,21.002,0,29.013l-44.252,44.255
				C521.796,182.09,516.542,184.093,511.293,184.093z"/>
		</g>
		<g>
			<path fill="#0B1153" d="M434.955,151.614c-11.33,0-20.516-9.186-20.516-20.516V70.516c0-11.33,9.186-20.516,20.516-20.516
				s20.516,9.186,20.516,20.516v60.583C455.471,142.428,446.285,151.614,434.955,151.614z"/>
		</g>
	</g>
</g>
</svg>
