<?xml version="1.0" encoding="utf-8"?>
<!-- Generator: Adobe Illustrator 19.1.1, SVG Export Plug-In . SVG Version: 6.00 Build 0)  -->
<svg version="1.1" id="Layer_1" xmlns="http://www.w3.org/2000/svg" xmlns:xlink="http://www.w3.org/1999/xlink" x="0px" y="0px"
	 viewBox="0 0 1200 1200" enable-background="new 0 0 1200 1200" xml:space="preserve">
<g>
	<path fill="#0B1153" d="M600,1150c-303.273,0-550-246.727-550-550S296.727,50,600,50s550,246.727,550,550S903.273,1150,600,1150z
		 M600,99.176C323.845,99.176,99.176,323.845,99.176,600S323.845,1100.824,600,1100.824S1100.824,876.155,1100.824,600
		S876.155,99.176,600,99.176z"/>
	<g>
		<path fill="#028DFF" d="M869.524,567.725c-11.406,0-21.631-7.976-24.051-19.579C821.207,431.634,717.082,347.07,597.883,347.07
			s-223.328,84.564-247.595,201.077c-2.773,13.297-15.804,21.797-29.088,19.06c-13.293-2.769-21.829-15.791-19.06-29.088
			c28.992-139.195,153.37-240.225,295.743-240.225c142.368,0,266.747,101.03,295.738,240.225
			c2.769,13.297-5.767,26.319-19.06,29.088C872.872,567.555,871.182,567.725,869.524,567.725z"/>
		<g>
			<g>
				<path fill="#028DFF" d="M324.222,570.65c-9.56,0-18.647-5.611-22.632-14.964l-45.439-106.682
					c-5.322-12.494,0.491-26.935,12.99-32.256c12.485-5.313,26.93,0.491,32.256,12.99l35.801,84.059l84.068-35.806
					c12.48-5.313,26.935,0.491,32.256,12.99c5.322,12.494-0.496,26.935-12.99,32.256l-106.687,45.439
					C330.705,570.012,327.436,570.65,324.222,570.65z"/>
			</g>
		</g>
		<path fill="#028DFF" d="M597.883,902.107c-142.373,0-266.751-101.03-295.743-240.225c-2.769-13.297,5.767-26.319,19.06-29.088
			c13.279-2.732,26.315,5.767,29.088,19.06C374.555,768.366,478.684,852.93,597.883,852.93s223.323-84.564,247.59-201.077
			c2.773-13.288,15.777-21.815,29.088-19.06c13.293,2.769,21.829,15.791,19.06,29.088
			C864.63,801.077,740.252,902.107,597.883,902.107z"/>
		<g>
			<g>
				<path fill="#028DFF" d="M917.002,785.227c-9.56,0-18.651-5.611-22.632-14.964l-35.801-84.059l-84.064,35.806
					c-12.498,5.308-26.935-0.491-32.261-12.985c-5.322-12.494,0.491-26.939,12.985-32.261l106.687-45.443
					c6.001-2.553,12.774-2.622,18.821-0.188c6.047,2.438,10.882,7.177,13.44,13.178l45.439,106.687
					c5.322,12.494-0.496,26.935-12.99,32.256C923.485,784.588,920.216,785.227,917.002,785.227z"/>
			</g>
		</g>
	</g>
</g>
</svg>
