<?xml version="1.0" encoding="utf-8"?>
<!-- Generator: Adobe Illustrator 19.1.1, SVG Export Plug-In . SVG Version: 6.00 Build 0)  -->
<svg version="1.1" id="Layer_1" xmlns="http://www.w3.org/2000/svg" xmlns:xlink="http://www.w3.org/1999/xlink" x="0px" y="0px"
	 viewBox="0 0 1200 1200" enable-background="new 0 0 1200 1200" xml:space="preserve">
<g>
	<path fill="#0B1153" d="M600,1150c-303.271,0-550-246.727-550-550S296.729,50,600,50s550,246.727,550,550S903.271,1150,600,1150z
		 M600,99.176C323.845,99.176,99.176,323.845,99.176,600S323.845,1100.824,600,1100.824S1100.824,876.155,1100.824,600
		S876.155,99.176,600,99.176z"/>
	<g>
		<g>
			<path fill="#028DFF" d="M403.276,754.678c-85.29,0-154.678-69.389-154.678-154.678s69.389-154.674,154.678-154.674
				c48.947,0,95.524,23.551,124.594,62.997c8.056,10.933,5.726,26.324-5.207,34.382c-10.935,8.058-26.326,5.73-34.382-5.207
				c-19.84-26.921-51.617-42.996-85.005-42.996c-58.174,0-105.502,47.326-105.502,105.497s47.328,105.502,105.502,105.502
				c31.159,0,60.564-13.674,80.677-37.514c8.761-10.386,24.274-11.695,34.648-2.939c10.379,8.756,11.695,24.271,2.939,34.648
				C492.062,734.641,448.956,754.678,403.276,754.678z"/>
			<path fill="#028DFF" d="M796.724,754.678c-48.949,0-95.527-23.551-124.594-63.002c-8.056-10.933-5.723-26.328,5.209-34.382
				c10.935-8.058,26.326-5.726,34.382,5.207c19.838,26.925,51.615,43.001,85.003,43.001c58.171,0,105.5-47.331,105.5-105.502
				s-47.328-105.497-105.5-105.497c-31.159,0-60.564,13.674-80.677,37.514c-8.759,10.386-24.271,11.695-34.648,2.939
				c-10.379-8.756-11.695-24.271-2.939-34.648c29.478-34.942,72.585-54.98,118.264-54.98c85.29,0,154.676,69.384,154.676,154.674
				S882.014,754.678,796.724,754.678z"/>
		</g>
		<path fill="#028DFF" d="M779.058,622.876H418.419c-13.58,0-24.588-11.006-24.588-24.588c0-13.582,11.008-24.588,24.588-24.588
			h360.639c13.58,0,24.588,11.006,24.588,24.588C803.646,611.869,792.638,622.876,779.058,622.876z"/>
	</g>
</g>
</svg>
