<?xml version="1.0" encoding="utf-8"?>
<!-- Generator: Adobe Illustrator 19.1.1, SVG Export Plug-In . SVG Version: 6.00 Build 0)  -->
<svg version="1.1" id="Layer_1" xmlns="http://www.w3.org/2000/svg" xmlns:xlink="http://www.w3.org/1999/xlink" x="0px" y="0px"
	 viewBox="0 0 1200 1200" enable-background="new 0 0 1200 1200" xml:space="preserve">
<g>
	<g>
		<path fill="#028DFF" d="M901.1,569.941H298.9c-14.675,0-26.567-11.894-26.567-26.567V375.695
			C272.333,196.105,419.083,50,599.459,50h1.439c180.183,0,326.769,146.105,326.769,325.695v167.678
			C927.667,558.046,915.775,569.941,901.1,569.941z M325.466,516.807h549.067V375.695c0-150.29-122.753-272.562-273.636-272.562
			h-1.439c-151.081,0-273.993,122.272-273.993,272.562V516.807z"/>
		<path fill="#0B1153" d="M913.836,1150H285.807c-68.468,0-124.172-53.972-124.172-120.312V543.374
			c0-14.672,11.892-26.567,26.567-26.567h823.596c14.675,0,26.567,11.894,26.567,26.567v486.314
			C1038.365,1096.028,982.503,1150,913.836,1150z M214.769,569.941v459.747c0,37.042,31.87,67.178,71.038,67.178h628.029
			c39.367,0,71.396-30.136,71.396-67.178V569.941H214.769z"/>
		<g>
			<path fill="#028DFF" d="M599.821,899.198c-71.152,0-129.039-57.886-129.039-129.039S528.669,641.12,599.821,641.12
				S728.86,699.007,728.86,770.159S670.974,899.198,599.821,899.198z M599.821,694.254c-41.852,0-75.905,34.051-75.905,75.905
				c0,41.855,34.053,75.905,75.905,75.905s75.905-34.051,75.905-75.905C675.727,728.305,641.673,694.254,599.821,694.254z"/>
			<path fill="#028DFF" d="M600,1026.019c-14.675,0-26.567-11.894-26.567-26.567V871.041c0-14.672,11.892-26.567,26.567-26.567
				s26.567,11.894,26.567,26.567v128.411C626.567,1014.125,614.675,1026.019,600,1026.019z"/>
		</g>
	</g>
</g>
</svg>
