<?xml version="1.0" encoding="utf-8"?>
<!-- Generator: Adobe Illustrator 19.1.1, SVG Export Plug-In . SVG Version: 6.00 Build 0)  -->
<svg version="1.1" id="Layer_1" xmlns="http://www.w3.org/2000/svg" xmlns:xlink="http://www.w3.org/1999/xlink" x="0px" y="0px"
	 viewBox="0 0 1200 1200" enable-background="new 0 0 1200 1200" xml:space="preserve">
<g>
	<g>
		<g>
			<g>
				<g>
					<path fill="#0B1153" d="M601.741,1118.288c-14.078,0-25.49-11.412-25.49-25.49V599.971c0-14.078,11.412-25.49,25.49-25.49
						c14.078,0,25.49,11.412,25.49,25.49v492.827C627.231,1106.876,615.819,1118.288,601.741,1118.288z"/>
					<path fill="#0B1153" d="M600.001,1150c-6.762,0-13.245-2.685-18.024-7.466L401.124,961.679c-9.956-9.953-9.956-26.095,0-36.048
						c9.953-9.953,26.095-9.958,36.048,0l162.828,162.828l162.828-162.828c9.953-9.958,26.095-9.958,36.048,0
						c9.956,9.953,9.956,26.095,0,36.048l-180.853,180.855C613.246,1147.315,606.763,1150,600.001,1150z"/>
				</g>
			</g>
			<g>
				<g>
					<path fill="#0B1153" d="M601.741,625.462c-14.078,0-25.49-11.412-25.49-25.49V107.143c0-14.078,11.412-25.49,25.49-25.49
						c14.078,0,25.49,11.412,25.49,25.49v492.829C627.231,614.049,615.819,625.462,601.741,625.462z"/>
					<path fill="#0B1153" d="M780.853,281.835c-6.524,0-13.047-2.487-18.024-7.466L600.001,111.543L437.172,274.369
						c-9.953,9.958-26.095,9.958-36.048,0c-9.956-9.953-9.956-26.095,0-36.048L581.977,57.469c9.953-9.958,26.095-9.958,36.048,0
						l180.853,180.853c9.956,9.953,9.956,26.095,0,36.048C793.901,279.348,787.377,281.835,780.853,281.835z"/>
				</g>
			</g>
		</g>
		<g>
			<g>
				<g>
					<path fill="#0B1153" d="M601.741,625.462H104.666c-14.078,0-25.49-11.412-25.49-25.49c0-14.078,11.412-25.49,25.49-25.49
						h497.075c14.078,0,25.49,11.412,25.49,25.49C627.231,614.049,615.819,625.462,601.741,625.462z"/>
					<path fill="#0B1153" d="M256.346,806.343c-6.524,0-13.047-2.487-18.024-7.466L57.467,618.024
						c-4.782-4.779-7.466-11.262-7.466-18.024s2.685-13.245,7.466-18.024l180.855-180.853c9.953-9.953,26.095-9.958,36.048,0
						c9.956,9.953,9.956,26.095,0,36.048L111.542,600L274.37,762.828c9.956,9.953,9.956,26.095,0,36.048
						C269.393,803.856,262.87,806.343,256.346,806.343z"/>
				</g>
			</g>
			<g>
				<g>
					<path fill="#0B1153" d="M1094.57,625.462H601.741c-14.078,0-25.49-11.412-25.49-25.49c0-14.078,11.412-25.49,25.49-25.49
						h492.829c14.078,0,25.49,11.412,25.49,25.49C1120.06,614.049,1108.648,625.462,1094.57,625.462z"/>
					<path fill="#0B1153" d="M943.656,806.343c-6.524,0-13.047-2.487-18.024-7.466c-9.956-9.953-9.956-26.095,0-36.048L1088.458,600
						L925.632,437.172c-9.956-9.953-9.956-26.095,0-36.048c9.953-9.958,26.095-9.958,36.048,0l180.853,180.853
						c9.956,9.953,9.956,26.095,0,36.048L961.68,798.877C956.703,803.856,950.179,806.343,943.656,806.343z"/>
				</g>
			</g>
		</g>
	</g>
</g>
</svg>
