<?xml version="1.0" encoding="utf-8"?>
<!-- Generator: Adobe Illustrator 19.1.1, SVG Export Plug-In . SVG Version: 6.00 Build 0)  -->
<svg version="1.1" id="Layer_1" xmlns="http://www.w3.org/2000/svg" xmlns:xlink="http://www.w3.org/1999/xlink" x="0px" y="0px"
	 viewBox="0 0 1200 1200" enable-background="new 0 0 1200 1200" xml:space="preserve">
<g>
	<path fill="#0B1153" d="M600,1150c-303.273,0-550-246.727-550-550S296.727,50,600,50s550,246.727,550,550S903.273,1150,600,1150z
		 M600,99.176C323.845,99.176,99.176,323.845,99.176,600S323.845,1100.824,600,1100.824S1100.824,876.155,1100.824,600
		S876.155,99.176,600,99.176z"/>
	<path fill="#028DFF" d="M596.373,886.041c-0.174,0-0.354,0-0.533-0.005c-8.504-0.184-16.31-4.748-20.635-12.071l-64.43-109.015
		H377.967c-41.357,0-73.751-33.115-73.751-75.39V447.172c0-42.418,32.394-75.647,73.751-75.647h444.066
		c42.137,0,76.414,33.937,76.414,75.647V689.56c0,41.573-34.277,75.39-76.414,75.39H688.531L616.98,874.869
		C612.439,881.848,604.679,886.041,596.373,886.041z M377.967,420.701c-14.009,0-24.574,11.383-24.574,26.471V689.56
		c0,15.189,10.336,26.214,24.574,26.214h146.836c8.697,0,16.746,4.592,21.167,12.076l51.413,86.984l57.207-87.889
		c4.537-6.97,12.292-11.171,20.607-11.171h146.836c14.762,0,27.238-12.003,27.238-26.214V447.172
		c0-14.349-12.475-26.471-27.238-26.471H377.967z"/>
</g>
</svg>
