<?xml version="1.0" encoding="utf-8"?>
<!-- Generator: Adobe Illustrator 19.1.1, SVG Export Plug-In . SVG Version: 6.00 Build 0)  -->
<svg version="1.1" id="Layer_1" xmlns="http://www.w3.org/2000/svg" xmlns:xlink="http://www.w3.org/1999/xlink" x="0px" y="0px"
	 viewBox="0 0 1200 1200" enable-background="new 0 0 1200 1200" xml:space="preserve">
<g>
	<g>
		<g>
			<g>
				<path fill="#0B1153" d="M1104.642,526.095c-15.428,0-27.93-12.505-27.93-27.93v-51.206c0-15.426,12.502-27.93,27.93-27.93
					c15.428,0,27.931,12.505,27.931,27.93v51.206C1132.573,513.59,1120.071,526.095,1104.642,526.095z"/>
				<path fill="#0B1153" d="M1104.642,978.477c-15.428,0-27.93-12.505-27.93-27.93V844.669c0-15.426,12.502-27.93,27.93-27.93
					c15.428,0,27.931,12.505,27.931,27.93v105.877C1132.573,965.972,1120.071,978.477,1104.642,978.477z M1104.642,752.287
					c-15.428,0-27.93-12.505-27.93-27.93V618.479c0-15.426,12.502-27.93,27.93-27.93c15.428,0,27.931,12.505,27.931,27.93v105.877
					C1132.573,739.783,1120.071,752.287,1104.642,752.287z"/>
				<path fill="#0B1153" d="M1104.642,1150h-51.208c-15.428,0-27.93-12.505-27.93-27.93s12.502-27.93,27.93-27.93h23.278v-23.278
					c0-15.426,12.502-27.93,27.93-27.93c15.428,0,27.931,12.505,27.931,27.93v51.208C1132.573,1137.495,1120.071,1150,1104.642,1150
					z"/>
				<path fill="#0B1153" d="M946.996,1150h-93.665c-15.428,0-27.93-12.505-27.93-27.93s12.502-27.93,27.93-27.93h93.665
					c15.428,0,27.93,12.505,27.93,27.93S962.424,1150,946.996,1150z M746.888,1150H653.22c-15.426,0-27.93-12.505-27.93-27.93
					s12.505-27.93,27.93-27.93h93.667c15.426,0,27.93,12.505,27.93,27.93S762.313,1150,746.888,1150z M546.782,1150h-93.667
					c-15.426,0-27.93-12.505-27.93-27.93s12.505-27.93,27.93-27.93h93.667c15.426,0,27.93,12.505,27.93,27.93
					S562.208,1150,546.782,1150z M346.674,1150h-93.667c-15.426,0-27.93-12.505-27.93-27.93s12.505-27.93,27.93-27.93h93.667
					c15.426,0,27.93,12.505,27.93,27.93S362.1,1150,346.674,1150z"/>
				<path fill="#0B1153" d="M146.563,1150H95.358c-15.426,0-27.93-12.505-27.93-27.93v-51.208c0-15.426,12.505-27.93,27.93-27.93
					s27.93,12.505,27.93,27.93v23.278h23.275c15.426,0,27.93,12.505,27.93,27.93S161.989,1150,146.563,1150z"/>
				<path fill="#0B1153" d="M95.358,980.477c-15.426,0-27.93-12.505-27.93-27.93V848.43c0-15.426,12.505-27.93,27.93-27.93
					s27.93,12.505,27.93,27.93v104.117C123.288,967.972,110.783,980.477,95.358,980.477z M95.358,758.046
					c-15.426,0-27.93-12.505-27.93-27.93V625.998c0-15.426,12.505-27.93,27.93-27.93s27.93,12.505,27.93,27.93v104.117
					C123.288,745.541,110.783,758.046,95.358,758.046z"/>
				<path fill="#0B1153" d="M95.358,535.614c-15.426,0-27.93-12.505-27.93-27.93v-51.206c0-15.426,12.505-27.93,27.93-27.93
					s27.93,12.505,27.93,27.93v51.206C123.288,523.109,110.783,535.614,95.358,535.614z"/>
			</g>
		</g>
		<g>
			<g>
				<path fill="#028DFF" d="M599.605,886.687c-15.426,0-27.93-12.505-27.93-27.93v-730.87c0-15.426,12.505-27.93,27.93-27.93
					c15.426,0,27.93,12.505,27.93,27.93v730.87C627.535,874.182,615.031,886.687,599.605,886.687z"/>
				<path fill="#028DFF" d="M888.762,394.627c-7.151,0.003-14.296-2.725-19.752-8.181L599.999,117.432L330.982,386.446
					c-10.906,10.911-28.593,10.911-39.499,0c-10.909-10.906-10.909-28.593,0-39.499L580.249,58.181
					C585.486,52.942,592.59,50,599.999,50l0,0c7.409,0,14.513,2.942,19.749,8.181l288.766,288.766
					c10.906,10.906,10.906,28.593,0,39.499C903.058,391.899,895.907,394.627,888.762,394.627z"/>
			</g>
		</g>
	</g>
</g>
</svg>
