<?xml version="1.0" encoding="utf-8"?>
<!-- Generator: Adobe Illustrator 19.1.1, SVG Export Plug-In . SVG Version: 6.00 Build 0)  -->
<svg version="1.1" id="Layer_1" xmlns="http://www.w3.org/2000/svg" xmlns:xlink="http://www.w3.org/1999/xlink" x="0px" y="0px"
	 viewBox="0 0 1200 1200" enable-background="new 0 0 1200 1200" xml:space="preserve">
<g>
	<path fill="#028DFF" d="M482.867,910.269c-237.178,0-430.136-192.957-430.136-430.136C52.732,242.957,245.689,50,482.867,50
		s430.136,192.957,430.136,430.133c0,14.045-11.383,25.43-25.43,25.43c-14.047,0-25.43-11.385-25.43-25.43
		c0-209.132-170.144-379.273-379.276-379.273S103.592,271.002,103.592,480.133s170.144,379.276,379.276,379.276
		c14.045,0,25.43,11.385,25.43,25.43S496.912,910.269,482.867,910.269z"/>
	<path fill="#028DFF" d="M482.867,771.254c-160.525,0-291.121-130.595-291.121-291.121s130.595-291.121,291.121-291.121
		s291.121,130.595,291.121,291.121c0,14.045-11.385,25.43-25.43,25.43s-25.43-11.385-25.43-25.43
		c0-132.481-107.78-240.26-240.26-240.26s-240.26,107.78-240.26,240.26s107.78,240.26,240.26,240.26
		c14.045,0,25.43,11.385,25.43,25.43C508.298,759.869,496.912,771.254,482.867,771.254z"/>
	<path fill="#028DFF" d="M426.306,607.243c-4.203,0-8.462-1.042-12.39-3.239c-60.322-33.74-88.02-110.793-63.057-175.417
		c24.948-64.601,95.468-101.696,164.053-86.289c41.172,9.251,76.877,37.751,95.513,76.243c6.121,12.641,0.833,27.85-11.808,33.971
		c-12.641,6.121-27.852,0.833-33.971-11.808c-11.941-24.663-34.702-42.899-60.885-48.78c-43.454-9.756-89.779,14.389-105.458,54.989
		c-16.044,41.54,1.719,91.042,40.439,112.699c12.259,6.857,16.638,22.353,9.783,34.61
		C443.868,602.551,435.218,607.243,426.306,607.243z"/>
	<g>
		<path fill="#0B1153" d="M1019.8,1150c-6.511,0.002-13.017-2.481-17.984-7.449L826.551,967.286l-95.775,95.772
			c-6.031,6.031-14.691,8.636-23.039,6.94c-8.358-1.695-15.31-7.468-18.513-15.372L464.763,500.613
			c-3.835-9.467-1.634-20.311,5.589-27.531c7.221-7.223,18.06-9.422,27.531-5.589l554.014,224.461
			c7.902,3.203,13.677,10.155,15.372,18.513c1.695,8.358-0.907,17.01-6.938,23.039l-95.779,95.777l175.27,175.27
			c4.768,4.768,7.446,11.238,7.446,17.982c0,6.746-2.678,13.214-7.446,17.982l-102.038,102.036
			C1032.816,1147.516,1026.306,1150,1019.8,1150z M826.551,905.891c6.506,0,13.017,2.481,17.984,7.449l175.265,175.265
			l66.075-66.071l-175.27-175.27c-9.93-9.93-9.93-26.033,0-35.963l86.619-86.619L534.461,537.191l187.491,462.765l86.614-86.616
			C813.534,908.372,820.04,905.891,826.551,905.891z"/>
	</g>
</g>
</svg>
