<?xml version="1.0" encoding="utf-8"?>
<!-- Generator: Adobe Illustrator 19.1.1, SVG Export Plug-In . SVG Version: 6.00 Build 0)  -->
<svg version="1.1" id="Layer_1" xmlns="http://www.w3.org/2000/svg" xmlns:xlink="http://www.w3.org/1999/xlink" x="0px" y="0px"
	 viewBox="0 0 1200 1200" enable-background="new 0 0 1200 1200" xml:space="preserve">
<g>
	<path fill="#0B1153" d="M1124.907,932.512c-13.857,0-25.094-11.236-25.094-25.096V221.924c0-24.135-10.003-47.43-28.171-65.595
		c-17.07-17.07-41.455-26.86-66.903-26.86H191.63c-25.011,0-47.517,9.287-65.088,26.86c-17.24,17.24-26.355,39.924-26.355,65.595
		v685.492c0,13.86-11.236,25.096-25.093,25.096S50,921.276,50,907.416V221.924c0-38.71,14.58-74.611,41.052-101.085
		c26.797-26.799,62.515-41.562,100.578-41.562h813.11c38.664,0,75.984,15.151,102.393,41.562
		c27.646,27.644,42.868,63.544,42.868,101.085v685.492C1150,921.276,1138.769,932.512,1124.907,932.512z"/>
	<g>
		<g>
			<path fill="#028DFF" d="M1020.344,572.815c-11.552,0-20.914-9.363-20.914-20.912V362.037L872.953,225.666H230.935
				c-11.809,0-16.337,2.723-19.473,5.667c-7.63,7.166-10.887,11.933-10.887,15.927v128.976c0,11.549-9.363,20.912-20.914,20.912
				c-11.552,0-20.914-9.363-20.914-20.912V247.26c0-21.089,12.872-35.883,24.084-46.416c16.236-15.241,35.228-17.002,48.105-17.002
				h651.143c5.82,0,11.377,2.424,15.333,6.691l138.266,149.078c3.587,3.868,5.582,8.948,5.582,14.221v198.071
				C1041.259,563.452,1031.896,572.815,1020.344,572.815z"/>
		</g>
		<path fill="#028DFF" d="M931.177,374.953c-0.015,0-0.029,0-0.044,0c-17.648,0-34.078-6.356-46.265-17.898
			c-12.571-11.904-19.536-28.292-19.638-46.19l-4.048-106.426c-0.354-8.766,4.8-16.82,12.911-20.172
			c8.101-3.344,17.444-1.281,23.38,5.179l138.067,150.235c5.611,6.103,7.086,14.94,3.762,22.533
			c-3.32,7.594-10.814,12.508-19.099,12.53L931.177,374.953z M905.24,259.705l1.801,49.995c0.01,0.25,0.015,0.502,0.015,0.752
			c0,6.548,2.271,12.161,6.572,16.233c4.378,4.147,10.586,6.436,17.473,6.443l41.538-0.087L905.24,259.705z"/>
	</g>
	<path fill="#0B1153" d="M1004.74,1120.723H191.63c-37.067,0-72.79-15.304-100.578-43.091C64.964,1051.541,50,1014.139,50,975.013
		V423.341c0-17.73,6.256-33.75,17.619-45.107c12.256-12.251,27.462-18.728,43.984-18.728h274.373
		c17.051,0,34.233,7.001,45.959,18.728c12.634,12.634,19.585,28.654,19.585,45.107v111.831h601.092
		c25.642,0,50.624,10.278,68.543,28.197c18.332,18.337,28.845,43.084,28.845,67.893v343.753c0,37.97-15.624,75.373-42.868,102.616
		C1079.748,1105.016,1042.423,1120.723,1004.74,1120.723z M111.603,409.698c-2.32,0-4.956,0.488-8.504,4.031
		c-2.534,2.534-2.912,7.111-2.912,9.613v551.672c0,25.914,9.605,50.381,26.355,67.129c12.954,12.952,34.757,28.391,65.088,28.391
		h813.11c24.472,0,48.857-10.348,66.903-28.391c17.9-17.903,28.171-42.368,28.171-67.126V631.262c0-11.6-5.159-23.412-14.148-32.406
		c-8.45-8.448-20.808-13.493-33.053-13.493H426.426c-13.857,0-25.093-11.236-25.093-25.096V423.341c0-2.919-1.874-6.603-4.888-9.618
		c-2.369-2.369-6.674-4.026-10.469-4.026H111.603z"/>
</g>
</svg>
