<?xml version="1.0" encoding="utf-8"?>
<!-- Generator: Adobe Illustrator 19.1.1, SVG Export Plug-In . SVG Version: 6.00 Build 0)  -->
<svg version="1.1" id="Layer_1" xmlns="http://www.w3.org/2000/svg" xmlns:xlink="http://www.w3.org/1999/xlink" x="0px" y="0px"
	 viewBox="0 0 1200 1200" enable-background="new 0 0 1200 1200" xml:space="preserve">
<g>
	<g>
		<g>
			<path fill="#028DFF" d="M599.999,882.335c-72.334,0-144.668-27.531-199.736-82.599c-110.135-110.135-110.135-289.337,0-399.472
				c53.352-53.35,124.286-82.737,199.736-82.737c75.452,0,146.386,29.386,199.738,82.737l0,0l0,0
				c110.13,110.135,110.13,289.337,0,399.472C744.67,854.803,672.333,882.335,599.999,882.335z M599.999,366.709
				c-62.313,0-120.898,24.267-164.963,68.333c-90.958,90.96-90.958,238.957,0,329.918c90.969,90.965,238.971,90.96,329.927,0
				c90.958-90.96,90.958-238.957,0-329.918l0,0C720.899,390.975,662.314,366.709,599.999,366.709z"/>
			<path fill="#028DFF" d="M847.912,872.026c-6.263,0-12.526-2.378-17.324-7.14l-65.564-65.091
				c-9.638-9.564-9.693-25.135-0.126-34.772c9.571-9.633,25.132-9.693,34.775-0.124l65.564,65.091
				c9.638,9.564,9.693,25.135,0.124,34.772C860.558,869.602,854.235,872.026,847.912,872.026z"/>
			<path fill="#028DFF" d="M932.632,1015.625c-6.304,0-12.609-2.411-17.411-7.227l-84.72-84.968
				c-12.448-12.448-19.322-29.033-19.322-46.678c0-17.641,6.874-34.226,19.345-46.701c25.754-25.736,67.648-25.745,93.403,0
				l93.247,93.522c9.587,9.615,9.564,25.185-0.05,34.772c-9.615,9.587-25.185,9.564-34.772-0.051l-93.219-93.495
				c-6.557-6.548-17.26-6.548-23.835,0.028c-6.575,6.575-6.575,17.278,0.005,23.854l84.743,84.996
				c9.587,9.615,9.569,25.185-0.05,34.772C945.195,1013.233,938.914,1015.625,932.632,1015.625z"/>
			<path fill="#028DFF" d="M516.112,708.477c-6.293,0-12.586-2.401-17.386-7.2c-55.846-55.843-55.846-146.712,0-202.555
				c9.601-9.596,25.171-9.596,34.772,0c9.603,9.606,9.603,25.171,0,34.777c-36.669,36.669-36.669,96.332,0,133.001
				c9.603,9.606,9.603,25.171,0,34.777C528.698,706.076,522.405,708.477,516.112,708.477z"/>
		</g>
	</g>
	<path fill="#0B1153" d="M599.999,1149.999C296.729,1149.999,50,903.272,50,600S296.729,50.001,599.999,50.001
		S1150,296.728,1150,600S903.269,1149.999,599.999,1149.999z M599.999,99.177C323.845,99.177,99.176,323.846,99.176,600
		s224.668,500.823,500.823,500.823c276.157,0,500.825-224.668,500.825-500.823S876.155,99.177,599.999,99.177z"/>
</g>
</svg>
