<?xml version="1.0" encoding="utf-8"?>
<!-- Generator: Adobe Illustrator 19.1.1, SVG Export Plug-In . SVG Version: 6.00 Build 0)  -->
<svg version="1.1" id="Layer_1" xmlns="http://www.w3.org/2000/svg" xmlns:xlink="http://www.w3.org/1999/xlink" x="0px" y="0px"
	 viewBox="0 0 1200 1200" enable-background="new 0 0 1200 1200" xml:space="preserve">
<g>
	<g>
		<path fill="#0B1153" d="M600,1150c-303.273,0-550-246.727-550-550S296.727,50,600,50s550,246.727,550,550S903.273,1150,600,1150z
			 M600,99.176C323.845,99.176,99.176,323.845,99.176,600S323.845,1100.824,600,1100.824S1100.824,876.155,1100.824,600
			S876.155,99.176,600,99.176z"/>
	</g>
	<g>
		<path fill="#028DFF" d="M597.553,839.325c-6.291,0-12.586-2.401-17.389-7.2L365.427,617.389c-4.61-4.615-7.2-10.868-7.2-17.389
			s2.59-12.774,7.2-17.389l214.737-214.732c9.61-9.597,25.176-9.592,34.777,0c9.601,9.606,9.601,25.171,0,34.777L417.588,600
			l197.353,197.349c9.601,9.606,9.601,25.171,0,34.777C610.138,836.924,603.848,839.325,597.553,839.325z"/>
		<path fill="#028DFF" d="M787.233,839.325c-6.291,0-12.586-2.401-17.388-7.2L555.108,617.389c-4.61-4.615-7.2-10.868-7.2-17.389
			s2.59-12.774,7.2-17.389l214.737-214.732c9.61-9.597,25.176-9.592,34.777,0c9.601,9.606,9.601,25.171,0,34.777L607.269,600
			l197.353,197.349c9.601,9.606,9.601,25.171,0,34.777C799.819,836.924,793.528,839.325,787.233,839.325z"/>
	</g>
</g>
</svg>
