<?xml version="1.0" encoding="utf-8"?>
<!-- Generator: Adobe Illustrator 19.1.1, SVG Export Plug-In . SVG Version: 6.00 Build 0)  -->
<svg version="1.1" id="Layer_1" xmlns="http://www.w3.org/2000/svg" xmlns:xlink="http://www.w3.org/1999/xlink" x="0px" y="0px"
	 viewBox="0 0 1200 1200" enable-background="new 0 0 1200 1200" xml:space="preserve">
<g>
	<path fill="#0B1153" d="M600,1150c-303.271,0-550-246.727-550-550S296.729,50,600,50s550,246.727,550,550S903.271,1150,600,1150z
		 M600,99.176C323.845,99.176,99.176,323.845,99.176,600S323.845,1100.824,600,1100.824S1100.824,876.155,1100.824,600
		S876.155,99.176,600,99.176z"/>
	<g>
		<g>
			<path fill="#028DFF" d="M600,828.296c-82.312,0-164.622-31.329-227.284-93.991l0,0L255.799,617.389
				c-9.603-9.606-9.603-25.171,0-34.777l116.917-116.917c125.324-125.324,329.243-125.324,454.567,0l116.915,116.917
				c9.603,9.606,9.603,25.171,0,34.777L827.284,734.305C764.622,796.963,682.312,828.296,600,828.296z M407.489,699.528
				c106.154,106.149,278.868,106.149,385.022,0L892.037,600l-99.526-99.528c-106.154-106.154-278.873-106.154-385.022,0L307.96,600
				L407.489,699.528z"/>
			<path fill="#028DFF" d="M600,718.097c-69.116,0-125.342-56.229-125.342-125.342S530.884,467.412,600,467.412
				s125.342,56.229,125.342,125.342S669.116,718.097,600,718.097z M600,516.588c-41.997,0-76.166,34.166-76.166,76.166
				S558.003,668.92,600,668.92s76.166-34.166,76.166-76.166S641.997,516.588,600,516.588z"/>
		</g>
	</g>
</g>
</svg>
