<?xml version="1.0" encoding="utf-8"?>
<!-- Generator: Adobe Illustrator 19.1.1, SVG Export Plug-In . SVG Version: 6.00 Build 0)  -->
<svg version="1.1" id="Layer_1" xmlns="http://www.w3.org/2000/svg" xmlns:xlink="http://www.w3.org/1999/xlink" x="0px" y="0px"
	 viewBox="0 0 1200 1200" enable-background="new 0 0 1200 1200" xml:space="preserve">
<g>
	<g>
		<path fill="#028DFF" d="M882.862,596.94H312.914c-13.992,0-25.33-11.341-25.33-25.33V360.313
			C287.584,189.205,427.135,50,598.671,50c1.164,0,2.318,0.078,3.467,0.237c169.611,1.573,307.099,140.468,307.099,310.971
			c0,13.99-11.338,25.33-25.33,25.33s-25.33-11.341-25.33-25.33c0-143.543-116.349-260.322-259.357-260.322
			c-1.093,0-2.181-0.071-3.259-0.21c-142.36,1.452-257.716,117.366-257.716,259.639v185.966h544.617
			c13.992,0,25.33,11.341,25.33,25.33C908.192,585.599,896.854,596.94,882.862,596.94z"/>
		<path fill="#028DFF" d="M899.143,1150H300.341c-65.234,0-118.302-51.46-118.302-114.712V571.609c0-13.99,11.338-25.33,25.33-25.33
			h785.262c13.992,0,25.33,11.341,25.33,25.33v463.678C1017.961,1098.54,964.661,1150,899.143,1150z M232.699,596.94v438.348
			c0,35.318,30.344,64.052,67.642,64.052h598.802c37.582,0,68.158-28.734,68.158-64.052V596.94H232.699z"/>
		<g>
			<path fill="#0B1153" d="M599.745,910.872c-67.845,0-123.037-55.192-123.037-123.033s55.192-123.033,123.037-123.033
				c67.841,0,123.033,55.192,123.033,123.033S667.585,910.872,599.745,910.872z M599.745,715.467
				c-39.909,0-72.377,32.466-72.377,72.372s32.468,72.372,72.377,72.372c39.904,0,72.372-32.466,72.372-72.372
				S639.649,715.467,599.745,715.467z"/>
			<path fill="#0B1153" d="M600,1031.787c-13.992,0-25.33-11.341-25.33-25.33V884.025c0-13.99,11.338-25.33,25.33-25.33
				s25.33,11.341,25.33,25.33v122.432C625.33,1020.447,613.992,1031.787,600,1031.787z"/>
		</g>
	</g>
</g>
</svg>
