<?xml version="1.0" encoding="utf-8"?>
<!-- Generator: Adobe Illustrator 19.1.1, SVG Export Plug-In . SVG Version: 6.00 Build 0)  -->
<svg version="1.1" id="Layer_1" xmlns="http://www.w3.org/2000/svg" xmlns:xlink="http://www.w3.org/1999/xlink" x="0px" y="0px"
	 viewBox="0 0 1200 1200" enable-background="new 0 0 1200 1200" xml:space="preserve">
<g>
	<g>
		<path fill="#0B1153" d="M600,1095.598c-134.057,0-260.09-52.205-354.881-146.998L57.409,760.893
			C52.664,756.15,50,749.716,50,743.006c0-6.708,2.664-13.144,7.409-17.887l187.71-187.71
			C339.91,442.617,465.943,390.412,600,390.412s260.09,52.205,354.881,146.998l187.71,187.71c4.745,4.743,7.409,11.179,7.409,17.887
			c0,6.71-2.664,13.144-7.409,17.887L954.881,948.6C860.09,1043.393,734.057,1095.598,600,1095.598z M111.072,743.006
			l169.821,169.821l0,0c85.236,85.236,198.565,132.179,319.107,132.179s233.871-46.943,319.107-132.179l169.821-169.821
			L919.107,573.183C833.871,487.949,720.542,441.006,600,441.006s-233.871,46.943-319.107,132.177L111.072,743.006z"/>
		<g>
			<g>
				<path fill="#028DFF" d="M420.191,367.556c-6.474,0-12.948-2.468-17.887-7.409l-98.548-98.548c-9.88-9.877-9.88-25.896,0-35.773
					c9.877-9.882,25.896-9.882,35.773,0l98.548,98.548c9.88,9.877,9.88,25.896,0,35.773
					C433.139,365.087,426.665,367.556,420.191,367.556z"/>
			</g>
			<g>
				<path fill="#028DFF" d="M779.807,367.556c-6.474,0-12.948-2.468-17.887-7.409c-9.88-9.877-9.88-25.896,0-35.773l98.55-98.548
					c9.877-9.882,25.896-9.882,35.773,0c9.88,9.877,9.88,25.896,0,35.773l-98.55,98.548
					C792.755,365.087,786.281,367.556,779.807,367.556z"/>
			</g>
			<g>
				<path fill="#028DFF" d="M599.171,294.126c-13.971,0-25.296-11.325-25.296-25.296V129.698c0-13.971,11.325-25.296,25.296-25.296
					c13.971,0,25.296,11.325,25.296,25.296V268.83C624.467,282.801,613.142,294.126,599.171,294.126z"/>
			</g>
		</g>
		<path fill="#028DFF" d="M600,918.43c-103.144,0-187.058-83.914-187.058-187.058S496.856,544.313,600,544.313
			s187.058,83.914,187.058,187.058S703.144,918.43,600,918.43z M600,594.905c-75.248,0-136.466,61.218-136.466,136.466
			S524.752,867.838,600,867.838s136.466-61.218,136.466-136.466S675.248,594.905,600,594.905z"/>
	</g>
</g>
</svg>
