<?xml version="1.0" encoding="utf-8"?>
<!-- Generator: Adobe Illustrator 19.1.1, SVG Export Plug-In . SVG Version: 6.00 Build 0)  -->
<svg version="1.1" id="Layer_1" xmlns="http://www.w3.org/2000/svg" xmlns:xlink="http://www.w3.org/1999/xlink" x="0px" y="0px"
	 viewBox="0 0 1200 1200" enable-background="new 0 0 1200 1200" xml:space="preserve">
<g>
	<g>
		<path fill="#028DFF" d="M384.912,713.531c-182.935,0-331.763-148.828-331.763-331.766S201.977,50,384.912,50
			c182.94,0,331.768,148.828,331.768,331.766c0,14.129-11.452,25.583-25.583,25.583s-25.583-11.454-25.583-25.583
			c0-154.721-125.877-280.599-280.601-280.599c-154.719,0-280.596,125.877-280.596,280.599s125.877,280.599,280.596,280.599
			c14.132,0,25.583,11.454,25.583,25.583C410.496,702.077,399.044,713.531,384.912,713.531z"/>
		<g>
			<path fill="#0B1153" d="M1003.678,1150c-6.545,0-13.095-2.496-18.092-7.494l-204.61-204.61l-113.002,113.002
				c-6.067,6.067-14.777,8.695-23.18,6.982c-8.408-1.706-15.403-7.513-18.623-15.465L367.503,403.969
				c-3.86-9.524-1.648-20.433,5.618-27.697c7.271-7.267,18.188-9.474,27.7-5.623l638.444,258.67
				c7.95,3.222,13.759,10.217,15.465,18.625s-0.912,17.113-6.98,23.178L934.744,784.126l204.615,204.613
				c9.99,9.99,9.99,26.19,0,36.18l-117.588,117.588C1016.773,1147.504,1010.228,1150,1003.678,1150z M780.975,876.13
				c6.55,0,13.095,2.496,18.092,7.493l204.61,204.61l81.408-81.406L880.471,802.216c-9.99-9.99-9.99-26.19,0-36.18l103.791-103.791
				L437.617,440.768l221.475,546.647l103.791-103.791C767.88,878.627,774.426,876.13,780.975,876.13z"/>
		</g>
	</g>
	<g>
		<g>
			<path fill="#028DFF" d="M288.899,403.405h-59.699c-9.421,0-17.056-7.637-17.056-17.056s7.634-17.056,17.056-17.056h59.699
				c9.421,0,17.056,7.637,17.056,17.056S298.32,403.405,288.899,403.405z"/>
		</g>
		<g>
			<path fill="#028DFF" d="M466.951,330.646c-4.367,0-8.728-1.665-12.058-4.995c-6.665-6.662-6.665-17.459,0-24.122l40.862-40.859
				c6.66-6.66,17.457-6.66,24.117,0c6.665,6.662,6.665,17.459,0,24.122l-40.862,40.859
				C475.68,328.981,471.318,330.646,466.951,330.646z"/>
			<path fill="#028DFF" d="M276.984,520.618c-4.367,0-8.728-1.665-12.058-4.995c-6.665-6.662-6.665-17.459,0-24.122l40.862-40.862
				c6.66-6.66,17.457-6.66,24.117,0c6.665,6.662,6.665,17.459,0,24.122l-40.862,40.862
				C285.712,518.953,281.35,520.618,276.984,520.618z"/>
		</g>
		<g>
			<path fill="#028DFF" d="M391.233,301.067c-9.421,0-17.056-7.637-17.056-17.056v-59.695c0-9.419,7.634-17.056,17.056-17.056
				c9.421,0,17.056,7.637,17.056,17.056v59.695C408.288,293.43,400.654,301.067,391.233,301.067z"/>
		</g>
		<g>
			<path fill="#028DFF" d="M317.846,330.646c-4.367,0-8.728-1.665-12.058-4.995l-40.862-40.859c-6.665-6.662-6.665-17.459,0-24.122
				c6.66-6.66,17.457-6.66,24.117,0l40.862,40.859c6.665,6.662,6.665,17.459,0,24.122
				C326.574,328.981,322.212,330.646,317.846,330.646z"/>
		</g>
	</g>
</g>
</svg>
