<?xml version="1.0" encoding="utf-8"?>
<!-- Generator: Adobe Illustrator 19.1.1, SVG Export Plug-In . SVG Version: 6.00 Build 0)  -->
<svg version="1.1" id="Layer_1" xmlns="http://www.w3.org/2000/svg" xmlns:xlink="http://www.w3.org/1999/xlink" x="0px" y="0px"
	 viewBox="0 0 1200 1200" enable-background="new 0 0 1200 1200" xml:space="preserve">
<g>
	<g>
		<g>
			<path fill="#028DFF" d="M737.118,230.379c-5.032,0-10.122-1.458-14.595-4.505l-133.784-91.059L463.29,224.09
				c-11.699,8.329-27.915,5.587-36.236-6.104c-8.322-11.691-5.59-27.915,6.104-36.236l140.184-99.763
				c8.86-6.301,20.699-6.427,29.686-0.311l148.734,101.236c11.864,8.074,14.935,24.239,6.861,36.1
				C753.596,226.402,745.43,230.379,737.118,230.379z"/>
			
				<path fill="none" stroke="#028DFF" stroke-width="10.4593" stroke-linecap="round" stroke-linejoin="round" stroke-miterlimit="10" d="
				M430.201,215.747"/>
			<path fill="#028DFF" d="M611.723,782.205c-4.246,0-8.496-1.038-12.349-3.122L64.46,490.106
				c-7.899-4.265-13.033-12.303-13.586-21.262c-0.553-8.957,3.557-17.565,10.869-22.769l202.846-144.357
				c11.699-8.326,27.915-5.582,36.236,6.104c8.322,11.691,5.59,27.915-6.104,36.236L125.874,464.22l485.568,262.316l462.69-261.346
				L905.542,350.443c-11.864-8.074-14.935-24.237-6.861-36.1c8.064-11.866,24.232-14.942,36.1-6.861l203.166,138.282
				c7.429,5.056,11.718,13.589,11.344,22.565c-0.379,8.977-5.362,17.121-13.183,21.539L624.504,778.845
				C620.539,781.085,616.134,782.205,611.723,782.205z"/>
			<g>
				<path fill="#0B1153" d="M911.811,603.143c-11.961,0-21.655-9.695-21.655-21.653V230.701H309.844V581.49
					c0,11.958-9.695,21.653-21.655,21.653s-21.655-9.695-21.655-21.653V209.048c0-11.958,9.695-21.653,21.655-21.653h623.622
					c11.961,0,21.655,9.695,21.655,21.653V581.49C933.466,593.448,923.772,603.143,911.811,603.143z"/>
				<g>
					<path fill="#028DFF" d="M790.55,360.623h-381.1c-11.961,0-21.655-9.695-21.655-21.653c0-11.958,9.695-21.653,21.655-21.653
						h381.1c11.961,0,21.655,9.695,21.655,21.653C812.205,350.929,802.511,360.623,790.55,360.623z"/>
					<path fill="#028DFF" d="M790.55,464.56h-381.1c-11.961,0-21.655-9.695-21.655-21.653c0-11.958,9.695-21.653,21.655-21.653
						h381.1c11.961,0,21.655,9.695,21.655,21.653C812.205,454.865,802.511,464.56,790.55,464.56z"/>
					<path fill="#028DFF" d="M790.55,572.826h-381.1c-11.961,0-21.655-9.695-21.655-21.653c0-11.958,9.695-21.653,21.655-21.653
						h381.1c11.961,0,21.655,9.695,21.655,21.653C812.205,563.132,802.511,572.826,790.55,572.826z"/>
				</g>
			</g>
			<path fill="#028DFF" d="M1048.264,1122.826H151.867c-56.169,0-101.867-44.832-101.867-99.938V467.245
				c0-9.149,4.813-17.626,12.669-22.313c7.856-4.69,17.594-4.903,25.653-0.556l523.051,282.172l499.877-281.936
				c8.045-4.534,17.895-4.466,25.872,0.197c7.977,4.658,12.878,13.2,12.878,22.436v555.643
				C1150,1077.995,1104.36,1122.826,1048.264,1122.826z M101.967,510.786v512.102c0,26.452,22.383,47.971,49.9,47.971h896.398
				c27.444,0,49.769-21.52,49.769-47.971V511.733L624.421,778.855c-7.768,4.382-17.25,4.474-25.105,0.235L101.967,510.786z"/>
			<path fill="#028DFF" d="M1102.963,1100.169c-6.793,0-13.576-2.644-18.671-7.907L711.571,707.358
				c-9.981-10.311-9.719-26.76,0.592-36.743c10.316-9.986,26.765-9.714,36.741,0.59l372.721,384.904
				c9.981,10.311,9.719,26.76-0.592,36.743C1115.986,1097.738,1109.47,1100.169,1102.963,1100.169z"/>
			<path fill="#028DFF" d="M100.322,1100.169c-6.507,0-13.023-2.431-18.07-7.317c-10.311-9.983-10.573-26.432-0.592-36.743
				l372.721-384.904c9.971-10.306,26.425-10.578,36.741-0.59c10.311,9.983,10.573,26.432,0.592,36.743l-372.721,384.904
				C113.898,1097.525,107.115,1100.169,100.322,1100.169z"/>
		</g>
	</g>
</g>
</svg>
