<?xml version="1.0" encoding="utf-8"?>
<!-- Generator: Adobe Illustrator 19.1.1, SVG Export Plug-In . SVG Version: 6.00 Build 0)  -->
<svg version="1.1" id="Layer_1" xmlns="http://www.w3.org/2000/svg" xmlns:xlink="http://www.w3.org/1999/xlink" x="0px" y="0px"
	 viewBox="0 0 1200 1200" enable-background="new 0 0 1200 1200" xml:space="preserve">
<g>
	<path fill="#0B1153" d="M600,1150c-303.273,0-550-246.727-550-550S296.727,50,600,50s550,246.727,550,550S903.273,1150,600,1150z
		 M600,99.176C323.845,99.176,99.176,323.845,99.176,600S323.845,1100.824,600,1100.824S1100.824,876.155,1100.824,600
		S876.155,99.176,600,99.176z"/>
	<g>
		<g>
			<path fill="#028DFF" d="M411.816,810.164c-39.612,0-79.22-15.074-109.373-45.228c-60.311-60.311-60.311-158.439-0.005-218.75
				c34.616-34.612,84.197-50.894,132.652-43.552c13.431,2.034,22.664,14.569,20.63,27.995c-2.034,13.431-14.56,22.646-27.995,20.63
				c-33.064-5.009-66.9,6.093-90.51,29.703c-41.136,41.132-41.136,108.064,0,149.196c41.132,41.141,108.073,41.132,149.205,0
				c22.022-22.031,33.147-52.492,30.516-83.572c-1.148-13.532,8.894-25.428,22.426-26.576c13.623-1.12,25.433,8.894,26.576,22.426
				c3.857,45.549-12.453,90.198-44.746,122.496C491.036,795.085,451.424,810.164,411.816,810.164z"/>
			<path fill="#028DFF" d="M423.608,668.356c-6.295,0-12.586-2.401-17.389-7.2c-9.601-9.606-9.601-25.171,0-34.777l121.43-121.43
				c9.606-9.596,25.171-9.596,34.777,0c9.601,9.606,9.601,25.171,0,34.777l-121.43,121.43
				C436.193,665.954,429.903,668.356,423.608,668.356z"/>
		</g>
		<g>
			<path fill="#028DFF" d="M778.146,810.164c-39.612,0-79.219-15.074-109.373-45.228c-32.302-32.307-48.612-76.956-44.75-122.505
				c1.148-13.532,13.086-23.555,26.581-22.421c13.532,1.148,23.569,13.049,22.421,26.581c-2.636,31.076,8.49,61.537,30.521,83.572
				c41.141,41.132,108.073,41.127,149.205-0.005s41.132-108.064-0.005-149.196c-23.61-23.61-57.423-34.717-90.51-29.703
				c-13.371,2.007-25.961-7.2-27.995-20.63c-2.034-13.426,7.2-25.961,20.63-27.995c48.465-7.337,98.041,8.945,132.652,43.552
				c60.307,60.311,60.307,158.439,0,218.75C857.366,795.085,817.758,810.164,778.146,810.164z"/>
			<path fill="#028DFF" d="M766.35,668.356c-6.295,0-12.586-2.401-17.389-7.2l-121.426-121.43c-9.601-9.606-9.601-25.171,0-34.777
				c9.61-9.596,25.176-9.592,34.777,0l121.426,121.43c9.601,9.606,9.601,25.171,0,34.777
				C778.936,665.954,772.641,668.356,766.35,668.356z"/>
		</g>
		<g>
			<g>
				<path fill="#028DFF" d="M533.83,417.111c-4.192,0-8.389-1.598-11.589-4.798l-33.533-33.533c-6.405-6.401-6.405-16.778,0-23.179
					c6.401-6.41,16.778-6.41,23.179,0l33.533,33.524c6.401,6.401,6.405,16.778,0.005,23.183
					C542.223,415.508,538.027,417.111,533.83,417.111z"/>
			</g>
			<g>
				<path fill="#028DFF" d="M729.167,479.07h-49.181c-9.055,0-16.392-7.337-16.392-16.392c0-9.055,7.337-16.392,16.392-16.392
					h49.181c9.055,0,16.392,7.337,16.392,16.392C745.559,471.733,738.222,479.07,729.167,479.07z"/>
				<path fill="#028DFF" d="M507.864,479.07h-45.081c-9.055,0-16.392-7.337-16.392-16.392c0-9.055,7.337-16.392,16.392-16.392
					h45.081c9.055,0,16.392,7.337,16.392,16.392C524.256,471.733,516.919,479.07,507.864,479.07z"/>
			</g>
			<g>
				<path fill="#028DFF" d="M656.188,417.111c-4.197,0-8.389-1.598-11.589-4.803c-6.405-6.401-6.405-16.778,0-23.179l33.533-33.528
					c6.401-6.41,16.778-6.41,23.179,0c6.405,6.401,6.405,16.778,0,23.179l-33.533,33.528
					C664.577,415.513,660.385,417.111,656.188,417.111z"/>
			</g>
			<g>
				<path fill="#028DFF" d="M593.925,393.009c-9.055,0-16.392-7.337-16.392-16.392v-49.181c0-9.055,7.337-16.392,16.392-16.392
					c9.055,0,16.392,7.337,16.392,16.392v49.181C610.317,385.672,602.98,393.009,593.925,393.009z"/>
			</g>
		</g>
	</g>
</g>
</svg>
