<?xml version="1.0" encoding="utf-8"?>
<!-- Generator: Adobe Illustrator 19.1.1, SVG Export Plug-In . SVG Version: 6.00 Build 0)  -->
<svg version="1.1" id="Layer_1" xmlns="http://www.w3.org/2000/svg" xmlns:xlink="http://www.w3.org/1999/xlink" x="0px" y="0px"
	 viewBox="0 0 1200 1200" enable-background="new 0 0 1200 1200" xml:space="preserve">
<g>
	<g>
		<path fill="#0B1153" d="M443.451,836.899c-105.097,0-203.904-40.924-278.215-115.238C90.924,647.35,50,548.546,50,443.453
			c0-105.095,40.924-203.899,115.235-278.21c74.312-74.314,173.118-115.24,278.215-115.24c105.092,0,203.899,40.926,278.21,115.24
			l0,0l0,0c74.312,74.312,115.235,173.116,115.235,278.21c0,105.092-40.924,203.896-115.235,278.208
			C647.349,795.975,548.543,836.899,443.451,836.899z M443.451,104.648c-90.5,0-175.582,35.24-239.572,99.233
			c-132.103,132.1-132.103,347.042,0,479.142c132.097,132.1,347.052,132.095,479.14,0c132.103-132.1,132.103-347.042,0-479.142l0,0
			C619.028,139.888,533.946,104.648,443.451,104.648z"/>
		<circle fill="#028DFF" cx="443.448" cy="443.452" r="267.106"/>
		<path fill="#0B1153" d="M795.427,822.077c-6.959,0-13.918-2.64-19.25-7.931l-93.087-92.414
			c-10.709-10.633-10.77-27.931-0.138-38.641c10.622-10.707,27.919-10.773,38.638-0.14l93.087,92.414
			c10.709,10.633,10.77,27.931,0.138,38.641C809.478,819.384,802.452,822.077,795.427,822.077z"/>
		<path fill="#028DFF" d="M1063.856,1149.997c-22.072,0-44.143-8.401-60.944-25.202L776.079,897.284
			c-33.577-33.572-33.577-88.248,0.026-121.847c16.281-16.278,37.919-25.242,60.939-25.242s44.658,8.964,60.939,25.242
			l226.838,227.511c33.577,33.572,33.577,88.248-0.026,121.847C1107.994,1141.597,1085.923,1149.997,1063.856,1149.997z
			 M837.054,804.85c-8.077,0-16.158,3.074-22.306,9.224c-5.959,5.957-9.24,13.875-9.24,22.299c0,8.426,3.281,16.344,9.24,22.301
			l226.833,227.511c12.281,12.276,32.291,12.263,44.572-0.028c12.296-12.296,12.296-32.304,0-44.6L859.315,814.047
			C853.182,807.917,845.121,804.85,837.054,804.85z"/>
		<path fill="#FFFFFF" d="M324.348,589.872c-6.995,0-13.985-2.666-19.322-8.003c-76.322-76.324-76.322-200.511,0-276.835
			c10.673-10.674,27.969-10.674,38.643,0c10.668,10.668,10.668,27.97,0,38.638c-55.021,55.018-55.021,144.541,0,199.56
			c10.668,10.668,10.668,27.969,0,38.638C338.333,587.207,331.343,589.872,324.348,589.872z"/>
	</g>
</g>
</svg>
