<?xml version="1.0" encoding="utf-8"?>
<!-- Generator: Adobe Illustrator 19.1.1, SVG Export Plug-In . SVG Version: 6.00 Build 0)  -->
<svg version="1.1" id="Layer_1" xmlns="http://www.w3.org/2000/svg" xmlns:xlink="http://www.w3.org/1999/xlink" x="0px" y="0px"
	 viewBox="0 0 1200 1200" enable-background="new 0 0 1200 1200" xml:space="preserve">
<g>
	<path fill="#0B1153" d="M600,1150c-303.273,0-550-246.727-550-550S296.727,50,600,50s550,246.727,550,550S903.273,1150,600,1150z
		 M600,99.176C323.845,99.176,99.176,323.845,99.176,600S323.845,1100.824,600,1100.824S1100.824,876.155,1100.824,600
		S876.155,99.176,600,99.176z"/>
	<g>
		<path fill="#028DFF" d="M668.42,688.793H347.924c-13.582,0-24.588-11.006-24.588-24.588V343.709
			c0-13.582,11.006-24.588,24.588-24.588H668.42c13.582,0,24.588,11.006,24.588,24.588v320.496
			C693.008,677.787,682.002,688.793,668.42,688.793z M372.512,639.617h271.32v-271.32h-271.32V639.617z"/>
		<path fill="#028DFF" d="M852.076,880.884H531.58c-13.582,0-24.588-11.006-24.588-24.588V535.8
			c0-13.582,11.006-24.588,24.588-24.588h320.496c13.582,0,24.588,11.006,24.588,24.588v320.496
			C876.664,869.878,865.658,880.884,852.076,880.884z M556.168,831.708h271.32v-271.32h-271.32V831.708z"/>
		<path fill="#028DFF" d="M668.42,645.577c-13.582,0-24.588-11.006-24.588-24.588V462.545c0-13.582,11.006-24.588,24.588-24.588
			c13.582,0,24.588,11.006,24.588,24.588v158.444C693.008,634.57,682.002,645.577,668.42,645.577z"/>
	</g>
</g>
</svg>
