<?xml version="1.0" encoding="utf-8"?>
<!-- Generator: Adobe Illustrator 19.1.1, SVG Export Plug-In . SVG Version: 6.00 Build 0)  -->
<svg version="1.1" id="Layer_1" xmlns="http://www.w3.org/2000/svg" xmlns:xlink="http://www.w3.org/1999/xlink" x="0px" y="0px"
	 viewBox="0 0 1200 1200" enable-background="new 0 0 1200 1200" xml:space="preserve">
<g>
	<path fill="#0B1153" d="M600,1150c-303.273,0-550-246.727-550-550S296.727,50,600,50s550,246.727,550,550S903.273,1150,600,1150z
		 M600,99.176C323.845,99.176,99.176,323.845,99.176,600S323.845,1100.824,600,1100.824S1100.824,876.155,1100.824,600
		S876.155,99.176,600,99.176z"/>
	<g>
		<path fill="#028DFF" d="M889.181,824.793H310.819c-33.184,0-60.183-26.994-60.183-60.178V435.39
			c0-33.184,26.999-60.178,60.183-60.178h578.363c33.184,0,60.178,26.994,60.178,60.178v329.225
			C949.359,797.799,922.365,824.793,889.181,824.793z M310.819,424.388c-6.07,0-11.006,4.936-11.006,11.002v329.225
			c0,6.066,4.936,11.002,11.006,11.002h578.363c6.066,0,11.002-4.936,11.002-11.002V435.39c0-6.066-4.936-11.002-11.002-11.002
			H310.819z"/>
		<path fill="#028DFF" d="M600,652.767c-4.44,0-8.88-1.198-12.811-3.6L271.312,456.378c-11.589-7.076-15.253-22.205-8.178-33.799
			c7.071-11.589,22.205-15.263,33.799-8.178l303.241,185.08l312.043-185.236c11.69-6.929,26.769-3.081,33.698,8.591
			c6.933,11.681,3.086,26.765-8.591,33.698L612.554,649.323C608.683,651.619,604.339,652.767,600,652.767z"/>
		<g>
			<path fill="#028DFF" d="M889.994,824.793c-6.529,0-13.04-2.58-17.88-7.7L664.076,596.901c-9.326-9.872-8.885-25.433,0.987-34.763
				c9.872-9.316,25.428-8.885,34.763,0.987l208.038,220.192c9.326,9.872,8.885,25.433-0.987,34.763
				C902.125,822.566,896.055,824.793,889.994,824.793z"/>
			<path fill="#028DFF" d="M310.001,824.793c-6.061,0-12.131-2.227-16.883-6.713c-9.872-9.33-10.313-24.891-0.987-34.763
				l208.042-220.192c9.335-9.872,24.891-10.304,34.763-0.987c9.872,9.33,10.313,24.891,0.987,34.763L327.881,817.093
				C323.042,822.212,316.531,824.793,310.001,824.793z"/>
		</g>
	</g>
</g>
</svg>
