<?xml version="1.0" encoding="utf-8"?>
<!-- Generator: Adobe Illustrator 19.1.1, SVG Export Plug-In . SVG Version: 6.00 Build 0)  -->
<svg version="1.1" id="Layer_1" xmlns="http://www.w3.org/2000/svg" xmlns:xlink="http://www.w3.org/1999/xlink" x="0px" y="0px"
	 viewBox="0 0 1200 1200" enable-background="new 0 0 1200 1200" xml:space="preserve">
<g>
	<g>
		<path fill="#0B1153" d="M665.272,1150H531.955c-11.393,0-21.299-7.813-23.95-18.894l-23.442-97.955
			c-39.586-10.414-76.72-25.737-110.746-45.697l-86.769,53.423c-9.717,5.983-22.274,4.505-30.335-3.566l-94.161-94.269
			c-8.064-8.075-9.526-20.632-3.53-30.342l54.481-88.233c-19.103-33.653-33.688-70.05-43.506-108.555L68.882,691.659
			C57.809,689.004,50,679.1,50,667.712V534.397c0-11.389,7.806-21.29,18.88-23.948l103.526-24.838
			c10.301-37.257,24.801-72.071,43.249-103.846l-56.868-92.437c-5.974-9.71-4.502-22.251,3.557-30.315l94.269-94.315
			c8.055-8.059,20.593-9.542,30.31-3.571l93.814,57.647c32.14-18.181,66.205-32.193,101.611-41.8l25.645-108.038
			C510.628,57.836,520.546,50,531.955,50h133.317c11.409,0,21.324,7.836,23.959,18.935l25.665,108.047
			c35.217,9.579,69.284,23.649,101.627,41.973l93.837-57.725c9.717-5.978,22.249-4.5,30.31,3.555l94.333,94.267
			c8.066,8.057,9.542,20.593,3.578,30.308l-56.73,92.381c19.328,32.95,34.182,67.76,44.309,103.83l104.892,24.863
			c11.106,2.633,18.947,12.55,18.947,23.964v133.315c0,11.414-7.845,21.333-18.951,23.964l-102.473,24.27
			c-9.694,37.486-24.589,73.869-44.419,108.523l54.279,88.174c5.983,9.717,4.507,22.269-3.564,30.333l-94.269,94.182
			c-8.071,8.064-20.625,9.529-30.338,3.534l-86.805-53.566c-34.371,20.221-71.51,35.649-110.769,46.019l-23.467,97.966
			C686.569,1142.189,676.663,1150,665.272,1150z M551.385,1100.748h94.462l22.437-93.664c2.182-9.105,9.338-16.188,18.466-18.271
			c44.463-10.159,86.019-27.436,123.515-51.356c7.974-5.084,18.142-5.153,26.176-0.198l83.122,51.294l66.727-66.665l-51.883-84.281
			c-4.879-7.921-4.875-17.917,0.005-25.836c23.697-38.434,40.414-79.337,49.685-121.579c2.033-9.241,9.174-16.503,18.381-18.682
			l98.27-23.274v-94.368l-100.339-23.782c-9.013-2.138-16.068-9.151-18.252-18.151c-9.961-41.023-26.778-80.411-49.979-117.077
			c-5.026-7.94-5.095-18.048-0.175-26.056l54.44-88.652l-66.833-66.783l-89.9,55.302c-7.887,4.859-17.843,4.868-25.748,0.037
			c-36.19-22.124-74.945-38.119-115.186-47.535c-9.089-2.127-16.192-9.209-18.349-18.289L645.81,99.252h-94.389L526.823,202.88
			c-2.157,9.08-9.262,16.165-18.351,18.291c-40.552,9.489-79.3,25.419-115.168,47.348c-7.903,4.831-17.85,4.819-25.739-0.03
			l-89.861-55.219l-66.778,66.81l54.559,88.682c4.928,8.009,4.863,18.126-0.166,26.072c-21.991,34.753-38.432,74.147-48.861,117.088
			c-2.182,8.977-9.202,15.978-18.186,18.135l-99.02,23.757v94.478l96.953,23.253c9.174,2.201,16.286,9.45,18.31,18.666
			c9.632,43.865,26.024,84.777,48.726,121.604c4.888,7.928,4.884,17.935-0.009,25.861l-52.071,84.331l66.642,66.721l83.06-51.14
			c8.036-4.948,18.197-4.865,26.158,0.209c36.946,23.571,78.493,40.735,123.485,51.014c9.131,2.086,16.286,9.168,18.466,18.275
			L551.385,1100.748z"/>
		<path fill="#028DFF" d="M598.613,928.974c-170.707,0-309.588-138.881-309.588-309.588s138.881-309.588,309.588-309.588
			c170.709,0,309.59,138.881,309.59,309.588S769.323,928.974,598.613,928.974z M598.613,359.05
			c-143.549,0-260.336,116.787-260.336,260.336s116.787,260.336,260.336,260.336c143.551,0,260.338-116.787,260.338-260.336
			S742.165,359.05,598.613,359.05z"/>
		<path fill="#028DFF" d="M598.613,745.664c-69.631,0-126.279-56.647-126.279-126.279s56.647-126.281,126.279-126.281
			s126.281,56.649,126.281,126.281S668.245,745.664,598.613,745.664z M598.613,542.357c-42.471,0-77.026,34.555-77.026,77.029
			c0,42.471,34.555,77.026,77.026,77.026c42.474,0,77.029-34.555,77.029-77.026C675.642,576.912,641.087,542.357,598.613,542.357z"
			/>
	</g>
</g>
</svg>
