<?xml version="1.0" encoding="utf-8"?>
<!-- Generator: Adobe Illustrator 19.1.1, SVG Export Plug-In . SVG Version: 6.00 Build 0)  -->
<svg version="1.1" id="Layer_1" xmlns="http://www.w3.org/2000/svg" xmlns:xlink="http://www.w3.org/1999/xlink" x="0px" y="0px"
	 viewBox="0 0 1200 1200" enable-background="new 0 0 1200 1200" xml:space="preserve">
<g>
	<g>
		<g>
			<path fill="#028DFF" d="M589.639,249.785c0-6.057,4.683-9.844,10.742-9.844c4.543,0,9.983,3.786,9.983,9.844v393.784
				c0,5.301-5.439,9.087-9.983,9.087c-6.059,0-10.742-3.786-10.742-9.087V249.785z M589.639,742.014
				c0-4.544,4.683-9.087,10.742-9.087c4.543,0,9.983,4.543,9.983,9.087v18.176c0,6.057-5.439,9.844-9.983,9.844
				c-6.059,0-10.742-3.787-10.742-9.844V742.014z"/>
			<path fill="#028DFF" d="M600.378,790.758c-17.643,0-31.469-13.426-31.469-30.568v-18.177c0-16.438,14.118-29.811,31.469-29.811
				c16.361,0,30.712,13.93,30.712,29.811v18.177C631.09,777.046,617.311,790.758,600.378,790.758z M593.719,751.58
				c1.551,1.231,3.697,2.071,6.66,2.071c2.169,0,4.156-0.766,5.777-2.085c-1.681-1.396-3.706-2.257-5.777-2.257
				C597.703,749.309,595.456,750.187,593.719,751.58z M600.378,673.38c-17.643,0-31.469-13.094-31.469-29.811V249.784
				c0-17.141,13.826-30.568,31.469-30.568c16.933,0,30.712,13.712,30.712,30.568v393.785
				C631.09,659.728,617.023,673.38,600.378,673.38z"/>
		</g>
		<path fill="#0B1153" d="M767.869,1150c-3.817,0-7.654-0.878-11.192-2.663c-8.387-4.228-13.672-12.815-13.672-22.206V945.321
			H154.412c-13.737,0-24.869-11.134-24.869-24.869V205.43c0-85.705,68.663-155.43,153.066-155.43h762.98
			c13.737,0,24.869,11.134,24.869,24.869V854.9c0,48.492-23.29,94.664-62.301,123.511l0,0l-225.496,166.717
			C778.295,1148.354,773.098,1150,767.869,1150z M179.281,895.583h588.593c13.737,0,24.869,11.134,24.869,24.869v155.362
			l185.84-137.399c26.383-19.508,42.136-50.73,42.136-83.515V99.739H282.608c-56.974,0-103.327,47.414-103.327,105.691V895.583z"/>
	</g>
</g>
</svg>
