<?xml version="1.0" encoding="utf-8"?>
<!-- Generator: Adobe Illustrator 19.1.1, SVG Export Plug-In . SVG Version: 6.00 Build 0)  -->
<svg version="1.1" id="Layer_1" xmlns="http://www.w3.org/2000/svg" xmlns:xlink="http://www.w3.org/1999/xlink" x="0px" y="0px"
	 viewBox="0 0 1200 1200" enable-background="new 0 0 1200 1200" xml:space="preserve">
<g>
	<g>
		<path fill="#0B1153" d="M965.898,1147.766H76.829c-14.817,0-26.829-12.011-26.829-26.828V232.329
			C50,131.34,129.341,52.234,230.628,52.234h892.544c14.82,0,26.828,12.011,26.828,26.829v888.536
			C1150,1066.944,1067.41,1147.766,965.898,1147.766z M103.657,1094.109h862.241c71.929,0,130.445-56.753,130.445-126.51V105.892
			H230.628c-71.197,0-126.971,55.538-126.971,126.437V1094.109z"/>
		<g>
			<path fill="#028DFF" d="M342.914,703.617c-57.154,0-103.652-46.498-103.652-103.652c0-57.157,46.498-103.654,103.652-103.654
				c57.157,0,103.654,46.498,103.654,103.654C446.569,657.119,400.071,703.617,342.914,703.617z M342.914,549.968
				c-27.568,0-49.995,22.43-49.995,49.997s22.427,49.995,49.995,49.995s49.997-22.427,49.997-49.995
				S370.482,549.968,342.914,549.968z"/>
			<path fill="#028DFF" d="M598.262,703.617c-57.157,0-103.654-46.498-103.654-103.652c0-57.157,46.498-103.654,103.654-103.654
				s103.654,46.498,103.654,103.654C701.916,657.119,655.418,703.617,598.262,703.617z M598.262,549.968
				c-27.568,0-49.997,22.43-49.997,49.997s22.43,49.995,49.997,49.995s49.997-22.427,49.997-49.995S625.829,549.968,598.262,549.968
				z"/>
			<path fill="#0B1153" d="M853.609,703.617c-57.157,0-103.654-46.498-103.654-103.652c0-57.157,46.498-103.654,103.654-103.654
				c57.154,0,103.652,46.498,103.652,103.654C957.26,657.119,910.763,703.617,853.609,703.617z M853.609,549.968
				c-27.57,0-49.995,22.43-49.995,49.997s22.425,49.995,49.995,49.995c27.565,0,49.995-22.427,49.995-49.995
				S881.174,549.968,853.609,549.968z"/>
		</g>
	</g>
</g>
</svg>
